<svg width="128" height="128" viewBox="0 0 128 128" fill="none" xmlns="http://www.w3.org/2000/svg">
<path d="M30.526 16.263C30.526 8.3985 24.1278 2 16.263 2C8.39825 2 2 8.3985 2 16.263C2 24.1278 8.3985 30.5263 16.263 30.5263C24.1275 30.5263 30.526 24.1278 30.526 16.263ZM9.91875 24.3213C10.6655 21.4828 13.2383 19.4457 16.2633 19.4457C19.2883 19.4457 21.8608 21.4825 22.6075 24.321C20.86 25.7 18.6568 26.526 16.263 26.526C13.8693 26.526 11.6662 25.7003 9.91875 24.3213ZM16.2633 15.4455C14.9785 15.4455 13.9335 14.4003 13.9335 13.116C13.9335 11.8313 14.9785 10.7863 16.2633 10.7863C17.548 10.7863 18.593 11.8315 18.593 13.116C18.593 14.4005 17.5478 15.4455 16.2633 15.4455ZM16.263 6C21.922 6 26.526 10.604 26.526 16.263C26.526 17.8933 26.1422 19.4348 25.463 20.8048C24.5082 19.1135 23.1053 17.7215 21.4188 16.781C22.1568 15.746 22.5928 14.4813 22.5928 13.116C22.5928 9.62575 19.7533 6.78625 16.263 6.78625C12.7728 6.78625 9.9335 9.62575 9.9335 13.116C9.9335 14.4813 10.3695 15.746 11.1075 16.781C9.421 17.7218 8.018 19.1138 7.06325 20.805C6.38375 19.4348 6 17.893 6 16.263C6 10.604 10.604 6 16.263 6ZM111.737 97.474C103.872 97.474 97.474 103.873 97.474 111.737C97.474 119.602 103.872 126 111.737 126C119.601 126 126 119.601 126 111.737C126 103.872 119.601 97.474 111.737 97.474ZM105.393 119.795C106.139 116.956 108.712 114.92 111.737 114.92C114.762 114.92 117.335 116.956 118.081 119.795C116.334 121.174 114.131 122 111.737 122C109.343 122 107.14 121.174 105.393 119.795ZM111.737 110.92C110.452 110.92 109.407 109.874 109.407 108.59C109.407 107.305 110.452 106.26 111.737 106.26C113.021 106.26 114.067 107.305 114.067 108.59C114.067 109.874 113.022 110.92 111.737 110.92ZM120.937 116.279C119.982 114.587 118.579 113.195 116.893 112.255C117.631 111.22 118.067 109.955 118.067 108.59C118.067 105.1 115.227 102.26 111.737 102.26C108.247 102.26 105.407 105.1 105.407 108.59C105.407 109.955 105.843 111.22 106.581 112.255C104.895 113.195 103.492 114.587 102.537 116.279C101.858 114.908 101.474 113.367 101.474 111.737C101.474 106.078 106.078 101.474 111.737 101.474C117.396 101.474 122 106.078 122 111.737C122 113.367 121.616 114.908 120.937 116.279ZM111.737 49.737C103.872 49.737 97.474 56.1355 97.474 64C97.474 71.8647 103.872 78.2633 111.737 78.2633C119.601 78.2633 126 71.8647 126 64C126 56.1355 119.601 49.737 111.737 49.737ZM105.393 72.0583C106.139 69.2198 108.712 67.1827 111.737 67.1827C114.762 67.1827 117.335 69.2198 118.081 72.0583C116.334 73.4373 114.131 74.2633 111.737 74.2633C109.343 74.2633 107.14 73.4373 105.393 72.0583ZM111.737 63.1825C110.452 63.1825 109.407 62.1372 109.407 60.8527C109.407 59.5682 110.452 58.5233 111.737 58.5233C113.021 58.5233 114.067 59.5685 114.067 60.8527C114.067 62.1375 113.022 63.1825 111.737 63.1825ZM120.937 68.5417C119.982 66.8505 118.579 65.4585 116.893 64.518C117.631 63.4827 118.067 62.2182 118.067 60.8527C118.067 57.3625 115.227 54.5233 111.737 54.5233C108.247 54.5233 105.407 57.3625 105.407 60.8527C105.407 62.218 105.843 63.4827 106.581 64.518C104.895 65.4585 103.492 66.8505 102.537 68.542C101.858 67.1717 101.474 65.6303 101.474 64.0003C101.474 58.3413 106.078 53.7373 111.737 53.7373C117.396 53.7373 122 58.341 122 64C122 65.6302 121.616 67.1717 120.937 68.5417ZM64 30.526C71.8645 30.526 78.263 24.1275 78.263 16.2628C78.263 8.3985 71.8645 2 64 2C56.1355 2 49.737 8.3985 49.737 16.263C49.737 24.1278 56.1355 30.526 64 30.526ZM57.6555 24.3213C58.4022 21.4825 60.975 19.4455 64 19.4455C67.025 19.4455 69.5977 21.4825 70.3445 24.321C68.597 25.7 66.3937 26.526 64 26.526C61.6063 26.526 59.4032 25.7 57.6555 24.3213ZM64 15.4455C62.7153 15.4455 61.6702 14.4003 61.6702 13.116C61.6702 11.8313 62.7155 10.7863 64 10.7863C65.2845 10.7863 66.3298 11.8315 66.3298 13.116C66.3298 14.4005 65.2847 15.4455 64 15.4455ZM64 6C69.659 6 74.263 10.604 74.263 16.263C74.263 17.8933 73.8792 19.4348 73.2 20.8048C72.2452 19.1135 70.8422 17.7215 69.1557 16.781C69.8937 15.746 70.3298 14.4813 70.3298 13.116C70.3298 9.62575 67.4903 6.78625 64 6.78625C60.5097 6.78625 57.6702 9.62575 57.6702 13.116C57.6702 14.4813 58.1062 15.746 58.8442 16.781C57.1577 17.7218 55.7547 19.1138 54.8 20.805C54.1207 19.4348 53.737 17.8933 53.737 16.2633C53.737 10.604 58.341 6 64 6ZM111.737 30.526C119.601 30.526 126 24.1275 126 16.2628C126 8.3985 119.601 2 111.737 2C103.872 2 97.474 8.3985 97.474 16.263C97.474 24.1278 103.872 30.526 111.737 30.526ZM105.393 24.3213C106.139 21.4828 108.712 19.4457 111.737 19.4457C114.762 19.4457 117.335 21.4828 118.081 24.3213C116.334 25.7003 114.131 26.5263 111.737 26.5263C109.343 26.526 107.14 25.7 105.393 24.3213ZM111.737 15.4455C110.452 15.4455 109.407 14.4003 109.407 13.116C109.407 11.8313 110.452 10.7863 111.737 10.7863C113.021 10.7863 114.067 11.8315 114.067 13.116C114.067 14.4005 113.022 15.4455 111.737 15.4455ZM111.737 6C117.396 6 122 10.604 122 16.263C122 17.8933 121.616 19.4348 120.937 20.8048C119.982 19.1135 118.579 17.7215 116.893 16.781C117.631 15.746 118.067 14.4813 118.067 13.116C118.067 9.62575 115.227 6.78625 111.737 6.78625C108.247 6.78625 105.407 9.62575 105.407 13.116C105.407 14.4813 105.843 15.746 106.581 16.781C104.895 17.7218 103.492 19.1138 102.537 20.805C101.858 19.4348 101.474 17.8933 101.474 16.2633C101.474 10.604 106.078 6 111.737 6ZM62.5465 101.186C62.345 102.124 61.5155 102.767 60.593 102.767C60.4537 102.767 60.3127 102.752 60.1712 102.721L55.2433 101.663C54.1633 101.432 53.4758 100.368 53.7075 99.288C53.9395 98.208 55.0035 97.52 56.0827 97.7525L61.0107 98.8105C62.0907 99.0425 62.7783 100.106 62.5465 101.186ZM94.365 108.018C94.1635 108.956 93.334 109.598 92.4115 109.598C92.2725 109.598 92.1313 109.584 91.9898 109.553L87.0618 108.495C85.9818 108.263 85.2943 107.2 85.526 106.12C85.758 105.04 86.8213 104.352 87.9013 104.584L92.8292 105.642C93.9095 105.874 94.597 106.938 94.365 108.018ZM69.1902 82.8343L65.4665 84.2947C65.2267 84.389 64.9797 84.4335 64.7367 84.4335C63.938 84.4335 63.1837 83.9518 62.8742 83.1633C62.471 82.135 62.9777 80.9745 64.006 80.5713L67.7298 79.1107C68.758 78.7067 69.9185 79.2137 70.322 80.2422C70.7252 81.2705 70.2185 82.431 69.1902 82.8343ZM85.217 74.4003C85.6205 75.4283 85.1138 76.589 84.0855 76.9922L80.3615 78.453C80.1218 78.5473 79.8745 78.5918 79.6318 78.5918C78.833 78.5918 78.0788 78.11 77.7695 77.3215C77.366 76.2935 77.8728 75.1327 78.901 74.7295L82.625 73.2688C83.6537 72.8648 84.8138 73.3718 85.217 74.4003ZM54.295 88.6762L50.5713 90.1367C50.3315 90.231 50.0845 90.2755 49.8415 90.2755C49.0427 90.2755 48.2885 89.7937 47.979 89.0052C47.5758 87.977 48.0825 86.8165 49.1107 86.4133L52.8345 84.9528C53.8627 84.5488 55.0233 85.056 55.4268 86.0843C55.83 87.1125 55.3232 88.273 54.295 88.6762ZM62.9665 65.0335C63.7475 65.8148 63.7475 67.0807 62.9665 67.862L47.8358 82.9928C47.4453 83.3833 46.9335 83.5785 46.4215 83.5785C45.9095 83.5785 45.3978 83.3833 45.0073 82.9928C44.226 82.2115 44.226 80.9455 45.0073 80.1643L60.138 65.0335C60.919 64.2528 62.1855 64.2528 62.9665 65.0335ZM79.5835 48.4168C78.8025 47.6355 78.8025 46.3695 79.5835 45.5882L94.7145 30.4573C95.4955 29.6765 96.7617 29.6765 97.5427 30.4573C98.3237 31.2385 98.324 32.5045 97.5427 33.2858L82.4118 48.4168C82.0213 48.8073 81.5095 49.0025 80.9975 49.0025C80.4855 49.0025 79.974 48.8073 79.5835 48.4168ZM37.8942 77.4798L39.3548 73.7558C39.758 72.7273 40.918 72.22 41.947 72.6243C42.9752 73.0273 43.482 74.188 43.0788 75.2162L41.6183 78.9402C41.309 79.7287 40.5545 80.2105 39.7557 80.2105C39.5127 80.2105 39.266 80.166 39.026 80.0717C37.9978 79.6687 37.491 78.508 37.8942 77.4798ZM49.578 47.6893L51.0385 43.9652C51.4415 42.9367 52.6022 42.4295 53.6307 42.8338C54.659 43.2368 55.1658 44.3975 54.7625 45.4258L53.302 49.1497C52.9927 49.9382 52.2382 50.42 51.4395 50.42C51.1965 50.42 50.9498 50.3755 50.7098 50.2812C49.6813 49.8783 49.1747 48.7175 49.578 47.6893ZM43.736 62.5845L45.1965 58.8605C45.5997 57.832 46.76 57.3248 47.7887 57.729C48.817 58.132 49.3238 59.2927 48.9205 60.321L47.46 64.045C47.1507 64.8335 46.3962 65.3152 45.5975 65.3152C45.3545 65.3152 45.1077 65.2707 44.8677 65.1765C43.8395 64.7735 43.333 63.6127 43.736 62.5845ZM19.5755 40.856L18.5175 36.0025C18.2822 34.9232 18.9665 33.8577 20.0457 33.6222C21.1242 33.3882 22.1905 34.071 22.4258 35.1502L23.4837 40.0037C23.719 41.083 23.0347 42.1485 21.9557 42.384C21.8122 42.4152 21.669 42.4305 21.5278 42.4305C20.6077 42.4305 19.7795 41.7917 19.5755 40.856ZM29.342 66.8763L30.4 71.7295C30.6352 72.8087 29.9512 73.8742 28.872 74.1097C28.7285 74.141 28.5853 74.1562 28.444 74.1562C27.524 74.1562 26.6958 73.5175 26.4918 72.5817L25.4338 67.7285C25.1985 66.6493 25.8825 65.5838 26.9618 65.3483C28.0412 65.113 29.1067 65.797 29.342 66.8763ZM43.642 93.3765C45.051 90.8683 44.6915 87.6265 42.5595 85.4945C40.4283 83.3632 37.1883 83.0035 34.6785 84.4128L28.8185 78.5527C27.7123 77.4465 26.1482 77.0225 24.6355 77.4193C23.122 77.8153 21.9665 78.9512 21.5445 80.4575C21.2768 81.413 21.0173 82.3815 20.7425 83.407C19.3178 88.7255 17.7055 94.7453 14.661 99.4505L9.0435 105.068C7.2065 106.905 6.19475 109.355 6.19475 111.968C6.19475 114.581 7.2065 117.03 9.0435 118.867C10.8802 120.704 13.3307 121.716 15.9432 121.716C18.5557 121.716 21.006 120.705 22.843 118.868L23.1232 118.587L28.705 124.169C29.8857 125.35 31.4588 126 33.1338 126C34.809 126 36.3817 125.349 37.5625 124.169L38.6175 123.114C38.9925 122.739 39.2033 122.23 39.2033 121.7C39.2033 121.17 38.9925 120.661 38.6175 120.285L30.351 112.019C35.4167 108.988 41.1283 107.528 47.0163 106.207C48.5893 105.854 49.7967 104.719 50.246 103.171C50.6947 101.622 50.2825 100.017 49.1425 98.8773L43.642 93.3765ZM39.7313 88.3232C40.2525 88.8445 40.5017 89.5347 40.4842 90.2188L37.8363 87.5707C38.5203 87.5527 39.21 87.802 39.7313 88.3232ZM18.7523 100.42C21.0088 96.5475 22.4555 92.177 23.6385 87.9875L39.583 103.932C35.4033 105.119 31.2553 106.684 27.4438 109.112L18.7523 100.42ZM15.9432 117.716C14.3992 117.716 12.9535 117.12 11.872 116.039C10.7905 114.957 10.195 113.512 10.195 111.968C10.195 110.424 10.7905 108.978 11.872 107.896L16.2222 103.547L24.3645 111.689L20.0147 116.039C18.9332 117.12 17.4875 117.716 15.9432 117.716ZM33.1338 122C32.5273 122 31.9588 121.766 31.5335 121.34L25.9517 115.759L27.1928 114.518L34.334 121.659C33.9787 121.881 33.566 122 33.1338 122ZM46.4043 102.056C46.3615 102.203 46.29 102.27 46.1405 102.304C45.458 102.457 44.772 102.614 44.0838 102.776L24.8485 83.5405C25.033 82.854 25.2135 82.189 25.3962 81.537C25.4367 81.3923 25.5028 81.3273 25.6488 81.2893C25.6913 81.278 25.729 81.2722 25.7638 81.2722C25.8478 81.2722 25.9147 81.3065 25.99 81.3818L46.314 101.706C46.4225 101.814 46.447 101.909 46.4043 102.056ZM24.4587 45.6162C19.9097 45.6162 16.2087 49.3172 16.2087 53.8662C16.2087 58.415 19.9097 62.116 24.4587 62.116C29.0077 62.116 32.7088 58.415 32.7088 53.8662C32.7088 49.3172 29.0077 45.6162 24.4587 45.6162ZM24.4587 58.116C22.1152 58.116 20.2087 56.2095 20.2087 53.8662C20.2087 51.5227 22.1152 49.6162 24.4587 49.6162C26.8022 49.6162 28.7087 51.5227 28.7087 53.8662C28.7087 56.2095 26.8022 58.116 24.4587 58.116ZM71.275 64.975C75.824 64.975 79.525 61.274 79.525 56.725C79.525 52.176 75.824 48.475 71.275 48.475C66.726 48.475 63.025 52.176 63.025 56.725C63.025 61.274 66.7258 64.975 71.275 64.975ZM71.275 52.475C73.6185 52.475 75.525 54.3815 75.525 56.725C75.525 59.0685 73.6185 60.975 71.275 60.975C68.9315 60.975 67.025 59.0685 67.025 56.725C67.025 54.3815 68.9315 52.475 71.275 52.475ZM74.0365 95.403C69.4875 95.403 65.7865 99.104 65.7865 103.653C65.7865 108.202 69.4875 111.903 74.0365 111.903C78.5855 111.903 82.2865 108.202 82.2865 103.653C82.2865 99.104 78.5855 95.403 74.0365 95.403ZM74.0365 107.903C71.693 107.903 69.7865 105.996 69.7865 103.653C69.7865 101.309 71.693 99.403 74.0365 99.403C76.38 99.403 78.2865 101.309 78.2865 103.653C78.2865 105.996 76.38 107.903 74.0365 107.903Z" fill="#0D1789"/>
</svg>
