<svg width="128" height="128" viewBox="0 0 128 128" fill="none" xmlns="http://www.w3.org/2000/svg">
<g clip-path="url(#clip0_1241_468)">
<path d="M125.867 77.291C124.689 77.291 123.733 78.2461 123.733 79.4243V101.334C123.733 103.69 121.823 105.6 119.467 105.6H84.9068C83.7286 105.6 82.7734 106.555 82.7734 107.734C82.7734 108.912 83.7286 109.867 84.9068 109.867H119.467C124.18 109.867 128 106.047 128 101.334V79.4243C128 78.2461 127.045 77.291 125.867 77.291Z" fill="#0D1789"/>
<path d="M115.2 90.667V97.067H108.8C107.622 97.067 106.667 98.0222 106.667 99.2004C106.667 100.379 107.622 101.334 108.8 101.334H117.334C118.512 101.334 119.467 100.379 119.467 99.2004V90.667C119.467 89.4888 118.512 88.5337 117.334 88.5337C116.155 88.5337 115.2 89.4888 115.2 90.667Z" fill="#0D1789"/>
<path d="M119.467 5.3335H8.53333C3.8205 5.3335 0 9.154 0 13.8668V101.334C0 106.046 3.8205 109.867 8.53333 109.867H30.208C31.3862 109.867 32.3413 108.912 32.3413 107.734C32.3413 106.555 31.3862 105.6 30.208 105.6H8.53333C6.17692 105.6 4.26667 103.69 4.26667 101.334V35.2002H123.733V48.8748C123.733 50.053 124.688 51.0082 125.867 51.0082C127.045 51.0082 128 50.053 128 48.8748V13.8668C128 9.154 124.18 5.3335 119.467 5.3335ZM4.26667 30.9335V13.8668C4.26667 11.5104 6.17692 9.60016 8.53333 9.60016H119.467C121.823 9.60016 123.733 11.5104 123.733 13.8668V30.9335H4.26667Z" fill="#0D1789"/>
<path d="M14.9332 13.8667C11.3986 13.8667 8.5332 16.7321 8.5332 20.2667C8.5332 23.8013 11.3986 26.6667 14.9332 26.6667C18.4678 26.6667 21.3332 23.8013 21.3332 20.2667C21.3332 16.7321 18.4678 13.8667 14.9332 13.8667ZM14.9332 22.4C13.755 22.4 12.7999 21.4449 12.7999 20.2667C12.7999 19.0885 13.755 18.1334 14.9332 18.1334C16.1114 18.1334 17.0665 19.0885 17.0665 20.2667C17.0665 21.4449 16.1114 22.4 14.9332 22.4Z" fill="#0D1789"/>
<path d="M31.9996 13.8667C28.465 13.8667 25.5996 16.7321 25.5996 20.2667C25.5996 23.8013 28.465 26.6667 31.9996 26.6667C35.5342 26.6667 38.3996 23.8013 38.3996 20.2667C38.3996 16.7321 35.5342 13.8667 31.9996 13.8667ZM31.9996 22.4C30.8214 22.4 29.8663 21.4449 29.8663 20.2667C29.8663 19.0885 30.8214 18.1334 31.9996 18.1334C33.1778 18.1334 34.1329 19.0885 34.1329 20.2667C34.1329 21.4449 33.1778 22.4 31.9996 22.4Z" fill="#0D1789"/>
<path d="M49.067 13.8667C45.5324 13.8667 42.667 16.7321 42.667 20.2667C42.667 23.8013 45.5324 26.6667 49.067 26.6667C52.6016 26.6667 55.467 23.8013 55.467 20.2667C55.467 16.7321 52.6016 13.8667 49.067 13.8667ZM49.067 22.4C47.8888 22.4 46.9337 21.4449 46.9337 20.2667C46.9337 19.0885 47.8888 18.1334 49.067 18.1334C50.2452 18.1334 51.2003 19.0885 51.2003 20.2667C51.2003 21.4449 50.2452 22.4 49.067 22.4Z" fill="#0D1789"/>
<path d="M12.8003 45.8668H57.6003C58.7785 45.8668 59.7337 44.9116 59.7337 43.7334C59.7337 42.5552 58.7785 41.6001 57.6003 41.6001H12.8003C11.6221 41.6001 10.667 42.5552 10.667 43.7334C10.667 44.9116 11.6221 45.8668 12.8003 45.8668Z" fill="#0D1789"/>
<path d="M12.8003 56.5333H57.6003C58.7785 56.5333 59.7337 55.5781 59.7337 54.3999C59.7337 53.2217 58.7785 52.2666 57.6003 52.2666H12.8003C11.6221 52.2666 10.667 53.2217 10.667 54.3999C10.667 55.5781 11.6221 56.5333 12.8003 56.5333Z" fill="#0D1789"/>
<path d="M12.8003 67.2003H57.6003C58.7785 67.2003 59.7337 66.2451 59.7337 65.0669C59.7337 63.8887 58.7785 62.9336 57.6003 62.9336H12.8003C11.6221 62.9336 10.667 63.8887 10.667 65.0669C10.667 66.2451 11.6221 67.2003 12.8003 67.2003Z" fill="#0D1789"/>
<path d="M12.8003 77.8668H57.6003C58.7785 77.8668 59.7337 76.9116 59.7337 75.7334C59.7337 74.5552 58.7785 73.6001 57.6003 73.6001H12.8003C11.6221 73.6001 10.667 74.5552 10.667 75.7334C10.667 76.9116 11.6221 77.8668 12.8003 77.8668Z" fill="#0D1789"/>
<path d="M12.8003 88.5333H48.2563C49.4345 88.5333 50.3897 87.5781 50.3897 86.3999C50.3897 85.2217 49.4345 84.2666 48.2563 84.2666H12.8003C11.6221 84.2666 10.667 85.2217 10.667 86.3999C10.667 87.5781 11.6221 88.5333 12.8003 88.5333Z" fill="#0D1789"/>
<path d="M12.8003 99.2003H34.1337C35.3119 99.2003 36.267 98.2451 36.267 97.0669C36.267 95.8887 35.3119 94.9336 34.1337 94.9336H12.8003C11.6221 94.9336 10.667 95.8887 10.667 97.0669C10.667 98.2451 11.6221 99.2003 12.8003 99.2003Z" fill="#0D1789"/>
<path d="M70.3999 45.8668H115.2C116.378 45.8668 117.333 44.9116 117.333 43.7334C117.333 42.5552 116.378 41.6001 115.2 41.6001H70.3999C69.2217 41.6001 68.2666 42.5552 68.2666 43.7334C68.2666 44.9116 69.2217 45.8668 70.3999 45.8668Z" fill="#0D1789"/>
<path d="M70.3999 56.5333H93.8666C95.0448 56.5333 95.9999 55.5781 95.9999 54.3999C95.9999 53.2217 95.0448 52.2666 93.8666 52.2666H70.3999C69.2217 52.2666 68.2666 53.2217 68.2666 54.3999C68.2666 55.5781 69.2217 56.5333 70.3999 56.5333Z" fill="#0D1789"/>
<path d="M70.3999 67.2003H78.9333C80.1115 67.2003 81.0666 66.2451 81.0666 65.0669C81.0666 63.8887 80.1115 62.9336 78.9333 62.9336H70.3999C69.2217 62.9336 68.2666 63.8887 68.2666 65.0669C68.2666 66.2451 69.2217 67.2003 70.3999 67.2003Z" fill="#0D1789"/>
<path d="M32.4434 120.683C33.232 121.836 34.5387 122.525 35.9356 122.526C36.28 122.525 36.623 122.484 36.9575 122.402L60.053 116.8C60.5645 116.678 61.0485 116.46 61.4802 116.16L103.253 87.2661L112.025 81.201L124.307 72.7061C128.178 70.0222 129.146 64.7118 126.472 60.8341L121.617 53.8154C118.936 49.9392 113.621 48.9697 109.745 51.6501L97.4631 60.145L88.7036 66.2101L46.9202 95.1082C46.4882 95.4048 46.1155 95.7796 45.8215 96.2133L32.4263 115.853C31.4233 117.308 31.4301 119.234 32.4434 120.683ZM89.3863 70.9333L99.093 84.9706L60.4818 111.665L50.773 97.6298L89.3863 70.9333ZM98.1586 64.8661L107.867 78.9034L102.592 82.5429L92.885 68.5056L98.1586 64.8661ZM112.196 55.1573C113.127 54.5135 114.275 54.266 115.389 54.4692C116.502 54.6725 117.49 55.3098 118.133 56.241L122.986 63.2576C123.631 64.1887 123.879 65.3378 123.675 66.4518C123.472 67.5658 122.834 68.5533 121.903 69.1968L111.36 76.4757L101.651 62.4384L112.196 55.1573ZM47.8183 100.855L56.4199 113.293L47.5324 115.447L42.6663 108.41L47.8183 100.855ZM40.0914 112.186L43.093 116.525L35.9527 118.255L40.0914 112.186Z" fill="#0D1789"/>
</g>
<defs>
<clipPath id="clip0_1241_468">
<rect width="128" height="128" fill="white"/>
</clipPath>
</defs>
</svg>
