<svg width="157" height="27" viewBox="0 0 157 27" fill="none" xmlns="http://www.w3.org/2000/svg">
<path d="M148.538 6.1698C150.429 6.1698 151.973 6.3476 153.169 6.7032C154.381 7.0588 155.319 7.7296 155.982 8.71558C156.661 9.70157 157 11.1159 157 12.9586C157 14.9305 156.644 16.4338 155.933 17.4682C155.222 18.4865 154.268 19.1654 153.072 19.5049C151.876 19.8281 150.365 19.9898 148.538 19.9898H143.689V6.1698H148.538ZM151.787 16.6924C151.981 16.4984 152.119 15.9973 152.199 15.1891C152.28 14.381 152.321 13.6374 152.321 12.9586C152.321 12.1019 152.256 11.423 152.127 10.9219C152.013 10.4047 151.803 9.99252 151.496 9.68541C151.011 9.152 150.179 8.8853 148.999 8.8853C148.789 8.8853 148.474 8.90147 148.053 8.93379V16.9833C148.328 17.0156 148.757 17.0318 149.338 17.0318C149.936 17.0318 150.462 17.0076 150.914 16.9591C151.383 16.8944 151.674 16.8055 151.787 16.6924Z" fill="#E8622C"/>
<path d="M138.39 19.9898H134.025V9.20049H130.122V6.1698H142.293V9.20049H138.39V19.9898Z" fill="#E8622C"/>
<path d="M122.331 6.1698H126.695V16.7894H132.345V19.9898H122.331V6.1698Z" fill="#E8622C"/>
<path d="M117.252 19.9897H112.67L111.846 16.4983C111.813 16.369 111.757 16.1508 111.676 15.8437C111.611 15.5204 111.53 15.2861 111.433 15.1406C111.337 14.979 111.199 14.8739 111.021 14.8254C110.569 14.8416 109.906 14.8496 109.033 14.8496V19.9897H104.669V6.29096C106.625 6.14549 108.451 6.07275 110.148 6.07275C111.684 6.07275 112.929 6.20206 113.882 6.46068C114.836 6.70314 115.547 7.13148 116.016 7.7457C116.501 8.34375 116.743 9.1681 116.743 10.2187C116.743 11.2047 116.517 11.9806 116.064 12.5463C115.612 13.0959 114.884 13.4272 113.882 13.5404V13.6859C114.448 13.7343 114.917 13.9202 115.289 14.2435C115.676 14.5506 115.935 14.9466 116.064 15.4315L117.252 19.9897ZM109.033 12.1099C109.179 12.1261 109.462 12.1341 109.882 12.1341C111.126 12.1341 111.854 12.0291 112.064 11.8189C112.258 11.625 112.355 11.1724 112.355 10.4612C112.355 9.79849 112.177 9.3459 111.821 9.10345C111.482 8.86099 110.916 8.73976 110.124 8.73976C109.946 8.73976 109.583 8.75593 109.033 8.78826V12.1099Z" fill="#F5F6FC"/>
<path d="M95.8296 20.3049C93.4212 20.3049 91.6109 19.7391 90.3986 18.6077C89.2025 17.4601 88.6044 15.6255 88.6044 13.1039C88.6044 10.6309 89.2671 8.82865 90.5926 7.69719C91.918 6.56573 93.6718 6 95.8539 6C100.444 6 102.74 8.28716 102.74 12.8615C102.74 15.1729 102.174 16.9913 101.042 18.3167C99.9271 19.6422 98.1895 20.3049 95.8296 20.3049ZM95.7326 17.4439C96.1852 17.4439 96.5651 17.3712 96.8722 17.2257C97.1793 17.0641 97.4217 16.7893 97.5995 16.4013C97.939 15.7386 98.1087 14.6557 98.1087 13.1524C98.1087 11.6815 97.939 10.6147 97.5995 9.95202C97.2601 9.27315 96.6378 8.91755 95.7326 8.88522C95.3932 8.88522 95.0376 8.92563 94.6658 9.00645C94.3102 9.0711 94.0839 9.16809 93.9869 9.2974C93.793 9.52369 93.6394 10.0086 93.5263 10.7521C93.4293 11.4795 93.3808 12.2796 93.3808 13.1524C93.3808 14.5102 93.5101 15.5043 93.7687 16.1346C93.9465 16.6034 94.1971 16.9428 94.5203 17.153C94.8436 17.3469 95.2477 17.4439 95.7326 17.4439Z" fill="#F5F6FC"/>
<path d="M88.634 19.9898H83.8576L81.1664 14.8255C81.1179 14.7446 80.9886 14.5184 80.7784 14.1466C80.5845 13.7748 80.3663 13.4192 80.1238 13.0798V19.9898H75.7596V6.1698H80.1238V12.4494C80.3986 12.1423 80.633 11.8109 80.8269 11.4553C81.0371 11.0836 81.1583 10.8654 81.1906 10.8007L83.7849 6.1698H88.3915L85.6276 10.8007C85.5791 10.8654 85.474 11.0351 85.3124 11.3099C85.1507 11.5846 84.9729 11.8433 84.779 12.0857C84.6012 12.312 84.4072 12.5221 84.1971 12.7161C84.488 12.9909 84.7224 13.2657 84.9002 13.5404C85.0942 13.7991 85.3124 14.1466 85.5548 14.583L88.634 19.9898Z" fill="#F5F6FC"/>
<path d="M74.1425 19.529C73.5445 19.7876 72.8494 19.9735 72.0574 20.0867C71.2654 20.1998 70.5299 20.2564 69.8511 20.2564C67.6528 20.2564 65.9314 19.6826 64.6867 18.535C63.4421 17.3873 62.8198 15.6255 62.8198 13.2494C62.8198 10.8249 63.4745 9.01453 64.7837 7.81842C66.093 6.60614 67.9357 6 70.3117 6C71.4432 6 72.6231 6.15356 73.8516 6.46067C73.8516 6.78394 73.8192 7.26885 73.7546 7.9154C73.6899 8.54578 73.6253 8.99029 73.5606 9.2489H72.0332C70.9179 9.2489 70.0369 9.27315 69.3904 9.32164C68.76 9.35397 68.3802 9.4267 68.2508 9.53985C68.0084 9.76614 67.8225 10.2268 67.6932 10.9218C67.5639 11.6007 67.4992 12.2554 67.4992 12.8857C67.4992 13.9849 67.6366 14.8335 67.9114 15.4315C68.1862 16.0134 68.5337 16.4013 68.954 16.5953C69.3581 16.7893 70.0289 16.8863 70.9663 16.8863C71.7099 16.8863 72.6797 16.8216 73.8758 16.6923L74.1425 19.529Z" fill="#F5F6FC"/>
<path d="M56.4863 6.1698H60.8505V19.9898H56.4863V6.1698Z" fill="#F5F6FC"/>
<path d="M44.8827 6.1698H49.2469V16.7894H54.8961V19.9898H44.8827V6.1698Z" fill="#F5F6FC"/>
<path d="M43.3384 19.529C42.7403 19.7876 42.0453 19.9735 41.2532 20.0867C40.4612 20.1998 39.7258 20.2564 39.0469 20.2564C36.8486 20.2564 35.1272 19.6826 33.8826 18.535C32.638 17.3873 32.0157 15.6255 32.0157 13.2494C32.0157 10.8249 32.6703 9.01453 33.9796 7.81842C35.2888 6.60614 37.1315 6 39.5076 6C40.639 6 41.819 6.15356 43.0474 6.46067C43.0474 6.78394 43.0151 7.26885 42.9504 7.9154C42.8858 8.54578 42.8211 8.99029 42.7565 9.2489H41.229C40.1137 9.2489 39.2328 9.27315 38.5862 9.32164C37.9558 9.35397 37.576 9.4267 37.4467 9.53985C37.2042 9.76614 37.0184 10.2268 36.889 10.9218C36.7597 11.6007 36.6951 12.2554 36.6951 12.8857C36.6951 13.9849 36.8325 14.8335 37.1073 15.4315C37.382 16.0134 37.7296 16.4013 38.1498 16.5953C38.5539 16.7893 39.2247 16.8863 40.1622 16.8863C40.9057 16.8863 41.8755 16.8216 43.0717 16.6923L43.3384 19.529Z" fill="#F5F6FC"/>
<rect x="3.45935" y="6.93042" width="15.32" height="13.8374" fill="#F5F6FC"/>
<path fill-rule="evenodd" clip-rule="evenodd" d="M0 7.79442C0 7.07987 0.381225 6.41959 1.00006 6.06234L5.75014 3.32011L10.5002 0.577431C11.119 0.22012 11.8815 0.22012 12.5003 0.577432L17.2504 3.32011L22 6.06232C22.6188 6.41959 23 7.07984 23 7.79437V13.2793V18.7639C23 19.4784 22.6189 20.1386 22.0001 20.4959L17.2504 23.2386L12.5002 25.9809C11.8814 26.3381 11.1191 26.3381 10.5003 25.9809L5.75014 23.2386L0.999939 20.4958C0.381171 20.1386 0 19.4783 0 18.7638V13.2793V7.79442ZM13.0933 7.73674C14.1483 7.73674 15.1601 8.15584 15.9061 8.90184C16.6521 9.64783 17.0712 10.6596 17.0712 11.7146C17.0712 12.7696 16.6521 13.7814 15.9061 14.5274L12.7417 17.6918C11.9957 18.4378 10.9839 18.8569 9.92894 18.8569C8.87394 18.8569 7.86215 18.4378 7.11615 17.6918C6.37015 16.9458 5.95105 15.934 5.95105 14.879C5.95105 13.824 6.37015 12.8122 7.11615 12.0662L10.2805 8.90184C11.0265 8.15584 12.0383 7.73674 13.0933 7.73674ZM12.2249 13.0803C12.3568 13.0803 12.4832 13.0279 12.5765 12.9347L14.2501 11.2611C14.3433 11.1678 14.3957 11.0413 14.3957 10.9095C14.3957 10.7776 14.3433 10.6511 14.2501 10.5579C14.1568 10.4646 14.0304 10.4122 13.8985 10.4122C13.7666 10.4122 13.6401 10.4646 13.5469 10.5579L11.8733 12.2315C11.78 12.3247 11.7276 12.4512 11.7276 12.5831C11.7276 12.715 11.78 12.8414 11.8733 12.9347C11.9665 13.0279 12.093 13.0803 12.2249 13.0803Z" fill="#E8622C"/>
</svg>
