<svg width="157" height="26" viewBox="0 0 157 26" fill="none" xmlns="http://www.w3.org/2000/svg">
<path d="M148.538 5.86035C150.429 5.86035 151.973 6.03815 153.169 6.39375C154.381 6.74936 155.319 7.42015 155.982 8.40614C156.661 9.39212 157 10.8064 157 12.6491C157 14.6211 156.644 16.1243 155.933 17.1588C155.222 18.1771 154.268 18.856 153.072 19.1954C151.876 19.5187 150.365 19.6803 148.538 19.6803H143.689V5.86035H148.538ZM151.787 16.3829C151.981 16.189 152.119 15.6879 152.199 14.8797C152.28 14.0715 152.321 13.328 152.321 12.6491C152.321 11.7924 152.256 11.1136 152.127 10.6125C152.013 10.0952 151.803 9.68307 151.496 9.37596C151.011 8.84255 150.179 8.57585 148.999 8.57585C148.789 8.57585 148.474 8.59202 148.053 8.62435V16.6739C148.328 16.7062 148.757 16.7224 149.338 16.7224C149.936 16.7224 150.462 16.6981 150.914 16.6496C151.383 16.585 151.674 16.4961 151.787 16.3829Z" fill="#E8622C"/>
<path d="M138.39 19.6803H134.025V8.89105H130.122V5.86035H142.293V8.89105H138.39V19.6803Z" fill="#E8622C"/>
<path d="M122.331 5.86035H126.695V16.4799H132.345V19.6803H122.331V5.86035Z" fill="#E8622C"/>
<path d="M117.252 19.6803H112.67L111.846 16.1889C111.813 16.0596 111.757 15.8414 111.676 15.5343C111.611 15.211 111.53 14.9766 111.433 14.8311C111.337 14.6695 111.199 14.5644 111.021 14.516C110.569 14.5321 109.906 14.5402 109.033 14.5402V19.6803H104.669V5.98152C106.625 5.83604 108.451 5.76331 110.148 5.76331C111.684 5.76331 112.929 5.89262 113.882 6.15123C114.836 6.39369 115.547 6.82203 116.016 7.43625C116.501 8.03431 116.743 8.85865 116.743 9.90929C116.743 10.8953 116.517 11.6711 116.064 12.2369C115.612 12.7864 114.884 13.1178 113.882 13.2309V13.3764C114.448 13.4249 114.917 13.6108 115.289 13.9341C115.676 14.2412 115.935 14.6372 116.064 15.1221L117.252 19.6803ZM109.033 11.8004C109.179 11.8166 109.462 11.8247 109.882 11.8247C111.126 11.8247 111.854 11.7196 112.064 11.5095C112.258 11.3155 112.355 10.863 112.355 10.1518C112.355 9.48904 112.177 9.03645 111.821 8.794C111.482 8.55154 110.916 8.43032 110.124 8.43032C109.946 8.43032 109.583 8.44648 109.033 8.47881V11.8004Z" fill="#0D1789"/>
<path d="M95.8296 19.9954C93.4212 19.9954 91.6109 19.4297 90.3986 18.2982C89.2025 17.1506 88.6044 15.316 88.6044 12.7945C88.6044 10.3215 89.2671 8.5192 90.5926 7.38774C91.918 6.25628 93.6718 5.69055 95.8539 5.69055C100.444 5.69055 102.74 7.97772 102.74 12.552C102.74 14.8635 102.174 16.6819 101.042 18.0073C99.9271 19.3327 98.1895 19.9954 95.8296 19.9954ZM95.7326 17.1345C96.1852 17.1345 96.5651 17.0617 96.8722 16.9162C97.1793 16.7546 97.4217 16.4798 97.5995 16.0919C97.939 15.4292 98.1087 14.3462 98.1087 12.843C98.1087 11.3721 97.939 10.3053 97.5995 9.64258C97.2601 8.9637 96.6378 8.6081 95.7326 8.57577C95.3932 8.57577 95.0376 8.61618 94.6658 8.697C94.3102 8.76166 94.0839 8.85864 93.9869 8.98795C93.793 9.21424 93.6394 9.69915 93.5263 10.4427C93.4293 11.17 93.3808 11.9702 93.3808 12.843C93.3808 14.2007 93.5101 15.1948 93.7687 15.8252C93.9465 16.2939 94.1971 16.6334 94.5203 16.8435C94.8436 17.0375 95.2477 17.1345 95.7326 17.1345Z" fill="#0D1789"/>
<path d="M88.634 19.6803H83.8576L81.1664 14.516C81.1179 14.4352 80.9886 14.2089 80.7784 13.8371C80.5845 13.4654 80.3663 13.1098 80.1238 12.7703V19.6803H75.7596V5.86035H80.1238V12.14C80.3986 11.8328 80.633 11.5015 80.8269 11.1459C81.0371 10.7741 81.1583 10.5559 81.1906 10.4913L83.7849 5.86035H88.3915L85.6276 10.4913C85.5791 10.5559 85.474 10.7256 85.3124 11.0004C85.1507 11.2752 84.9729 11.5338 84.779 11.7763C84.6012 12.0026 84.4072 12.2127 84.1971 12.4067C84.488 12.6814 84.7224 12.9562 84.9002 13.231C85.0942 13.4896 85.3124 13.8371 85.5548 14.2736L88.634 19.6803Z" fill="#0D1789"/>
<path d="M74.1425 19.2196C73.5445 19.4782 72.8494 19.6641 72.0574 19.7772C71.2654 19.8904 70.5299 19.9469 69.8511 19.9469C67.6528 19.9469 65.9314 19.3731 64.6867 18.2255C63.4421 17.0779 62.8198 15.316 62.8198 12.94C62.8198 10.5154 63.4745 8.70508 64.7837 7.50897C66.093 6.29669 67.9357 5.69055 70.3117 5.69055C71.4432 5.69055 72.6231 5.84411 73.8516 6.15122C73.8516 6.47449 73.8192 6.9594 73.7546 7.60595C73.6899 8.23633 73.6253 8.68084 73.5606 8.93946H72.0332C70.9179 8.93946 70.0369 8.9637 69.3904 9.01219C68.76 9.04452 68.3802 9.11726 68.2508 9.2304C68.0084 9.45669 67.8225 9.91736 67.6932 10.6124C67.5639 11.2913 67.4992 11.9459 67.4992 12.5763C67.4992 13.6754 67.6366 14.524 67.9114 15.1221C68.1862 15.704 68.5337 16.0919 68.954 16.2859C69.3581 16.4798 70.0289 16.5768 70.9663 16.5768C71.7099 16.5768 72.6797 16.5122 73.8758 16.3828L74.1425 19.2196Z" fill="#0D1789"/>
<path d="M56.4863 5.86035H60.8505V19.6803H56.4863V5.86035Z" fill="#0D1789"/>
<path d="M44.8827 5.86035H49.2469V16.4799H54.8961V19.6803H44.8827V5.86035Z" fill="#0D1789"/>
<path d="M43.3384 19.2196C42.7403 19.4782 42.0453 19.6641 41.2532 19.7772C40.4612 19.8904 39.7258 19.9469 39.0469 19.9469C36.8486 19.9469 35.1272 19.3731 33.8826 18.2255C32.638 17.0779 32.0157 15.316 32.0157 12.94C32.0157 10.5154 32.6703 8.70508 33.9796 7.50897C35.2888 6.29669 37.1315 5.69055 39.5076 5.69055C40.639 5.69055 41.819 5.84411 43.0474 6.15122C43.0474 6.47449 43.0151 6.9594 42.9504 7.60595C42.8858 8.23633 42.8211 8.68084 42.7565 8.93946H41.229C40.1137 8.93946 39.2328 8.9637 38.5862 9.01219C37.9558 9.04452 37.576 9.11726 37.4467 9.2304C37.2042 9.45669 37.0184 9.91736 36.889 10.6124C36.7597 11.2913 36.6951 11.9459 36.6951 12.5763C36.6951 13.6754 36.8325 14.524 37.1073 15.1221C37.382 15.704 37.7296 16.0919 38.1498 16.2859C38.5539 16.4798 39.2247 16.5768 40.1622 16.5768C40.9057 16.5768 41.8755 16.5122 43.0717 16.3828L43.3384 19.2196Z" fill="#0D1789"/>
<rect x="3.45935" y="6.62097" width="15.32" height="13.8374" fill="#F5F6FC"/>
<path fill-rule="evenodd" clip-rule="evenodd" d="M0 7.48498C0 6.77042 0.381225 6.11014 1.00006 5.75289L5.75014 3.01066L10.5002 0.267984C11.119 -0.0893281 11.8815 -0.0893279 12.5003 0.267984L17.2504 3.01066L22 5.75288C22.6188 6.11014 23 6.77039 23 7.48492V12.9699V18.4544C23 19.1689 22.6189 19.8291 22.0001 20.1864L17.2504 22.9291L12.5002 25.6714C11.8814 26.0287 11.1191 26.0287 10.5003 25.6714L5.75014 22.9291L0.999939 20.1864C0.381171 19.8291 0 19.1689 0 18.4544V12.9699V7.48498ZM13.0933 7.42729C14.1483 7.42729 15.1601 7.84639 15.9061 8.59239C16.6521 9.33839 17.0712 10.3502 17.0712 11.4052C17.0712 12.4602 16.6521 13.472 15.9061 14.218L12.7417 17.3824C11.9957 18.1284 10.9839 18.5475 9.92894 18.5475C8.87394 18.5475 7.86215 18.1284 7.11615 17.3824C6.37015 16.6364 5.95105 15.6246 5.95105 14.5696C5.95105 13.5146 6.37015 12.5028 7.11615 11.7568L10.2805 8.59239C11.0265 7.84639 12.0383 7.42729 13.0933 7.42729ZM12.2249 12.7709C12.3568 12.7709 12.4832 12.7185 12.5765 12.6252L14.2501 10.9516C14.3433 10.8584 14.3957 10.7319 14.3957 10.6C14.3957 10.4681 14.3433 10.3417 14.2501 10.2484C14.1568 10.1552 14.0304 10.1028 13.8985 10.1028C13.7666 10.1028 13.6401 10.1552 13.5469 10.2484L11.8733 11.922C11.78 12.0153 11.7276 12.1418 11.7276 12.2736C11.7276 12.4055 11.78 12.532 11.8733 12.6252C11.9665 12.7185 12.093 12.7709 12.2249 12.7709Z" fill="#E8622C"/>
</svg>
