<svg width="128" height="128" viewBox="0 0 128 128" fill="none" xmlns="http://www.w3.org/2000/svg">
<path d="M30 61.632V66H34V62H38V56C38 52.692 35.308 50 32 50C30.898 50 30 49.104 30 48V46H32C33.102 46 34 46.896 34 48V50H38V48C38 45.396 36.322 43.196 34 42.368V38H30V42H26V48C26 51.308 28.692 54 32 54C33.102 54 34 54.896 34 56V58H32C30.898 58 30 57.104 30 56V54H26V56C26 58.604 27.678 60.804 30 61.632Z" fill="#0D1789"/>
<path d="M121.93 66C121.952 65.332 122 64.664 122 64C122 60.194 121.628 56.386 120.896 52.684L120.508 50.722L104.814 53.844L105.202 55.804C105.732 58.484 106 61.242 106 64C106 64.668 105.942 65.332 105.91 66H93.93C93.974 65.334 94 64.666 94 64C94 47.458 80.542 34 64 34C59.138 34 54.368 35.182 50.098 37.42L42.512 27.938C48.998 24.064 56.384 22 64 22H66V6H64C57.818 6 51.768 6.97 45.968 8.868C45.98 8.578 46 8.29 46 8V7.172L45.414 6.586C44.946 6.118 40.468 2 28 2H26V4C26 4.676 26.02 5.354 26.06 6.028C22.708 6.176 19.724 8.082 18.212 11.104L17.764 12L22 20.472V27.298L10.98 41.072C7.768 45.088 6 50.13 6 55.272C6 55.82 6.046 56.356 6.084 56.894L4.274 59.79C2.786 62.17 2 64.91 2 67.716C2 69.466 2.302 71.186 2.9 72.83L10 92.352V126H46V119.146C51.79 121.038 57.83 122 64 122C64.67 122 65.332 121.952 66 121.93V126H68C99.982 126 126 99.98 126 68V66H121.93ZM109.47 56.994L117.324 55.432C117.774 58.252 118 61.126 118 64C118 64.662 117.954 65.332 117.93 66H109.91C109.938 65.332 110 64.668 110 64C110 61.652 109.822 59.304 109.47 56.994ZM64 38C78.336 38 90 49.664 90 64C90 64.666 89.97 65.334 89.92 66H66V89.896C59.99 90.358 54.068 88.742 49.15 85.306C49.702 83.19 50 81.008 50 78.79V72.55C54.886 68.378 58 62.186 58 55.272C58 50.132 56.232 45.088 53.02 41.072L52.654 40.614C56.172 38.906 60.048 38 64 38ZM66 105.91C65.332 105.942 64.668 106 64 106C57.684 106 51.638 104.622 46 101.94V92.564C46.676 91.494 47.27 90.382 47.778 89.236C52.608 92.358 58.164 94 64 94C64.664 94 65.332 93.974 66 93.93V105.91ZM45.322 13.352C50.672 11.378 56.262 10.244 62 10.036V18.044C54.962 18.346 48.146 20.256 42 23.61V20.608L42.336 20.104C43.724 18.02 44.718 15.74 45.322 13.352ZM41.974 8.972C41.802 12.154 40.786 15.216 39.008 17.882L38.93 18H33.252C31.43 14.274 30.336 10.184 30.066 6.042C37.072 6.344 40.652 8.128 41.974 8.972ZM38 22V26H26V22H38ZM26.472 10H26.516C26.984 12.744 27.766 15.436 28.85 18H25.236L22.282 12.094C23.26 10.784 24.794 10 26.472 10ZM14.104 43.572L24.962 30H39.038L49.896 43.572C52.542 46.878 54 51.036 54 55.272C54 65.598 45.598 74 35.272 74H28.73C27.18 74 25.652 73.77 24.162 73.396C22.842 70.832 20.87 68.622 18.356 67.034L21.618 55.614C21.872 54.73 22 53.812 22 52.89C22 49.092 18.908 46 15.108 46C13.722 46 12.454 46.702 11.716 47.878L11.218 48.676C11.906 46.844 12.87 45.114 14.104 43.572ZM6.66 71.462C6.222 70.26 6 69 6 67.716C6 65.66 6.576 63.652 7.666 61.908L15.108 50C16.704 50 18 51.296 18 52.89C18 53.44 17.924 53.988 17.772 54.516L13.62 69.046L15.104 69.788C19.358 71.914 22 76.19 22 80.944V82H26V80.944C26 79.866 25.866 78.818 25.666 77.788C26.678 77.924 27.7 78 28.728 78H35.27C39.148 78 42.8 77.02 45.998 75.3V78.79C45.998 82.758 44.93 86.614 42.898 90H13.4L6.66 71.462ZM14 122V94H42V122H14ZM64 118C57.808 118 51.768 116.922 46 114.88V106.334C51.682 108.762 57.72 110 64 110C64.668 110 65.332 109.938 66 109.91V117.93C65.332 117.954 64.67 118 64 118ZM70 121.962V70H121.964C120.934 98.192 98.192 120.934 70 121.962Z" fill="#0D1789"/>
<path d="M96 94C92.692 94 90 96.692 90 100C90 103.308 92.692 106 96 106C99.308 106 102 103.308 102 100C102 96.692 99.308 94 96 94ZM96 102C94.898 102 94 101.104 94 100C94 98.896 94.898 98 96 98C97.102 98 98 98.896 98 100C98 101.104 97.102 102 96 102Z" fill="#0D1789"/>
<path d="M80 86C83.308 86 86 83.308 86 80C86 76.692 83.308 74 80 74C76.692 74 74 76.692 74 80C74 83.308 76.692 86 80 86ZM80 78C81.102 78 82 78.896 82 80C82 81.104 81.102 82 80 82C78.898 82 78 81.104 78 80C78 78.896 78.898 78 80 78Z" fill="#0D1789"/>
<path d="M74.4736 102.736L98.4812 74.7454L101.517 77.3494L77.5096 105.34L74.4736 102.736Z" fill="#0D1789"/>
<path d="M102.814 47.9238L103.58 49.7718L118.366 43.6458L117.6 41.7978C110.15 23.8358 94.3424 10.8678 75.3144 7.10377L73.3544 6.71777L70.2324 22.4138L72.1964 22.8018C85.9744 25.5238 97.4204 34.9158 102.814 47.9238ZM95.1004 30.0718C93.8624 28.9358 92.5644 27.8718 91.2104 26.8798L95.6584 20.2218C97.4424 21.5118 99.1464 22.9118 100.76 24.4118L95.1004 30.0718ZM87.8744 24.6698C86.4424 23.8018 84.9624 23.0118 83.4364 22.3018L86.5004 14.9038C88.5104 15.8218 90.4524 16.8598 92.3224 18.0098L87.8744 24.6698ZM105.704 44.5618C104.99 43.0298 104.196 41.5518 103.33 40.1238L109.986 35.6758C111.132 37.5398 112.178 39.4778 113.102 41.4938L105.704 44.5618ZM107.758 32.3578L101.1 36.8058C100.106 35.4478 99.0424 34.1478 97.9124 32.9138L103.576 27.2518C105.07 28.8618 106.466 30.5658 107.758 32.3578ZM76.4924 11.4518C78.6504 11.9618 80.7564 12.6098 82.8104 13.3698L79.7464 20.7658C78.1784 20.1978 76.5724 19.7078 74.9324 19.3078L76.4924 11.4518Z" fill="#0D1789"/>
</svg>
