<svg width="128" height="128" viewBox="0 0 128 128" fill="none" xmlns="http://www.w3.org/2000/svg">
<path d="M26.7632 40.7273C25.9875 40.7273 25.0178 40.1455 24.8238 39.1758C24.6299 38.2061 24.6299 37.2364 24.6299 36.4606C24.6299 27.7334 31.8056 20.5576 40.5329 20.5576C43.442 20.5576 45.9632 21.1394 48.4844 22.497C49.4541 23.0788 49.842 24.2425 49.2602 25.2122C48.6784 26.1819 47.5147 26.5697 46.545 25.9879C44.6056 25.0182 42.6662 24.4364 40.5329 24.4364C33.745 24.4364 28.5087 29.6728 28.5087 36.4606C28.5087 37.2364 28.5087 37.8182 28.7026 38.4C28.8966 39.3697 28.3147 40.5334 27.345 40.7273C27.1511 40.7273 26.9572 40.7273 26.7632 40.7273Z" fill="#0D1789"/>
<path d="M91.7326 27.7334C90.569 27.7334 89.7932 26.9576 89.7932 25.794C89.7932 14.7395 80.872 5.81824 69.8174 5.81824C58.569 5.81824 49.8417 14.5455 49.8417 25.794C49.8417 26.9576 49.0659 27.7334 47.9023 27.7334C46.7386 27.7334 45.9629 26.9576 45.9629 25.794C45.9629 12.4122 56.4356 1.93945 69.8174 1.93945C83.0053 1.93945 93.672 12.6061 93.672 25.794C93.672 26.9576 92.8962 27.7334 91.7326 27.7334Z" fill="#0D1789"/>
<path d="M107.054 38.206C106.86 38.206 106.666 38.206 106.666 38.206C105.696 38.0121 104.92 36.8485 105.308 35.8788C105.502 35.2969 105.502 34.9091 105.502 34.1333C105.502 29.4788 101.43 25.406 96.775 25.406C95.6114 25.406 94.0599 25.7939 92.5083 26.5697C91.5386 26.9576 90.375 26.5697 89.9871 25.7939C89.5992 24.8242 89.9871 23.6606 90.7629 23.2727C92.8962 22.303 94.8356 21.7212 96.5811 21.7212C103.369 21.7212 109.187 27.5394 109.187 34.3273C109.187 35.103 109.187 35.8788 108.993 36.8485C108.799 37.6242 107.83 38.206 107.054 38.206Z" fill="#0D1789"/>
<path d="M107.83 69.2362H19.7815C10.2785 69.2362 2.71484 61.6726 2.71484 52.1696C2.71484 42.6665 10.2785 35.1029 19.7815 35.1029C22.3027 35.1029 24.8239 35.6847 27.3451 36.8484C28.3148 37.2362 28.7027 38.3999 28.3148 39.3696C27.927 40.3393 26.7633 40.7271 25.7936 40.3393C23.8542 39.3696 21.7209 38.9817 19.7815 38.9817C12.6058 38.9817 6.59363 44.9938 6.59363 52.1696C6.59363 59.3453 12.6058 65.3575 19.7815 65.3575H107.83C115.394 65.3575 121.406 59.3453 121.406 51.7817C121.406 44.2181 115.394 38.2059 107.83 38.2059C106.666 38.2059 105.891 37.4302 105.891 36.2665C105.891 35.1029 106.666 34.3271 107.83 34.3271C117.527 34.3271 125.285 42.0847 125.285 51.7817C125.285 61.4787 117.527 69.2362 107.83 69.2362Z" fill="#0D1789"/>
<path d="M63.9999 85.5272C62.8363 85.5272 62.0605 84.7515 62.0605 83.5878V67.103C62.0605 65.9393 62.8363 65.1636 63.9999 65.1636C65.1636 65.1636 65.9393 65.9393 65.9393 67.103V83.5878C65.9393 84.7515 65.1636 85.5272 63.9999 85.5272Z" fill="#0D1789"/>
<path d="M19.7812 97.7454C18.6176 97.7454 17.8418 96.9696 17.8418 95.806V83.5878C17.8418 82.4242 18.6176 81.6484 19.7812 81.6484H31.0297V67.103C31.0297 65.9393 31.8054 65.1636 32.9691 65.1636C34.1327 65.1636 34.9085 65.9393 34.9085 67.103V83.5878C34.9085 84.7515 34.1327 85.5272 32.9691 85.5272H21.7206V95.806C21.7206 96.9696 20.9448 97.7454 19.7812 97.7454Z" fill="#0D1789"/>
<path d="M29.8664 126.061H9.8906C6.01181 126.061 2.71484 122.764 2.71484 118.885V100.849C2.71484 96.9698 6.01181 93.6729 9.8906 93.6729H29.8664C33.7451 93.6729 37.0421 96.9698 37.0421 100.849V118.885C36.8482 122.958 33.5512 126.061 29.8664 126.061ZM9.8906 97.5516C7.95121 97.5516 6.59363 98.9092 6.59363 100.849V118.885C6.59363 120.824 7.95121 122.182 9.8906 122.182H29.8664C31.6118 122.182 32.9694 120.63 33.1633 118.691V100.849C33.1633 98.9092 31.8058 97.5516 29.8664 97.5516H9.8906Z" fill="#0D1789"/>
<path d="M108.218 97.7454C107.054 97.7454 106.279 96.9696 106.279 95.806V85.5272H95.0302C93.8666 85.5272 93.0908 84.7515 93.0908 83.5878V67.103C93.0908 65.9393 93.8666 65.1636 95.0302 65.1636C96.1939 65.1636 96.9696 65.9393 96.9696 67.103V81.6484H108.218C109.382 81.6484 110.157 82.4242 110.157 83.5878V95.806C110.157 96.9696 109.382 97.7454 108.218 97.7454Z" fill="#0D1789"/>
<path d="M63.9999 67.8787C62.8363 67.8787 62.0605 67.103 62.0605 65.9393V54.6909C62.0605 53.5272 62.8363 52.7515 63.9999 52.7515C65.1636 52.7515 65.9393 53.5272 65.9393 54.6909V65.9393C65.9393 67.103 65.1636 67.8787 63.9999 67.8787Z" fill="#0D1789"/>
<path d="M64.0001 56.6301C59.1516 56.6301 55.4668 52.9453 55.4668 48.0968C55.4668 45.7695 56.4365 43.4423 58.1819 41.6968C59.7335 40.1453 61.8668 39.3695 64.1941 39.5635C68.8486 39.5635 72.5335 43.2483 72.5335 48.0968C72.5335 52.9453 68.8486 56.6301 64.0001 56.6301ZM63.8062 43.4423C62.6426 43.4423 61.6729 43.8301 60.8971 44.6059C59.9274 45.5756 59.3456 46.7392 59.3456 48.0968C59.3456 50.618 61.4789 52.7513 64.0001 52.7513C66.5213 52.7513 68.6547 50.618 68.6547 48.0968C68.6547 45.5756 66.5213 43.4423 64.0001 43.4423H63.8062Z" fill="#0D1789"/>
<path d="M87.0783 50.0364C82.4237 50.0364 78.5449 46.1576 78.5449 41.5031C78.5449 36.8485 82.4237 32.9697 87.0783 32.9697C91.7328 32.9697 95.6116 36.8485 95.6116 41.5031C95.6116 46.1576 91.7328 50.0364 87.0783 50.0364ZM87.0783 36.8485C84.557 36.8485 82.4237 38.9818 82.4237 41.5031C82.4237 44.0243 84.557 46.1576 87.0783 46.1576C89.5995 46.1576 91.7328 44.0243 91.7328 41.5031C91.7328 38.9818 89.5995 36.8485 87.0783 36.8485Z" fill="#0D1789"/>
<path d="M78.7392 67.8788C77.5756 67.8788 76.7998 67.1031 76.7998 65.9394V60.897C76.7998 58.5697 78.1574 56.2425 80.2907 55.0788L83.7816 52.9455C84.7513 52.3637 85.3331 51.394 85.3331 50.4243V48.291C85.3331 47.1273 86.1089 46.3516 87.2725 46.3516C88.4362 46.3516 89.2119 47.1273 89.2119 48.291V50.4243C89.2119 52.7516 87.8544 55.0788 85.721 56.2425L82.2301 58.3758C81.2604 58.9576 80.6786 59.9273 80.6786 60.897V65.9394C80.6786 67.1031 79.9028 67.8788 78.7392 67.8788Z" fill="#0D1789"/>
<path d="M40.921 50.0364C36.2665 50.0364 32.3877 46.1576 32.3877 41.5031C32.3877 36.8485 36.2665 32.9697 40.921 32.9697C45.5756 32.9697 49.4544 36.8485 49.4544 41.5031C49.4544 46.1576 45.5756 50.0364 40.921 50.0364ZM40.921 36.8485C38.3998 36.8485 36.2665 38.9818 36.2665 41.5031C36.2665 44.0243 38.3998 46.1576 40.921 46.1576C43.4422 46.1576 45.5756 44.0243 45.5756 41.5031C45.5756 38.9818 43.4422 36.8485 40.921 36.8485Z" fill="#0D1789"/>
<path d="M49.2608 67.8789C48.0972 67.8789 47.3214 67.1032 47.3214 65.9395V60.8971C47.3214 59.9274 46.7396 58.9577 45.7699 58.182L42.279 56.2426C40.1457 54.885 38.7881 52.7517 38.7881 50.2304V48.0971C38.7881 46.9335 39.5638 46.1577 40.7275 46.1577C41.8911 46.1577 42.6669 46.9335 42.6669 48.0971V50.2304C42.6669 51.2001 43.2487 52.1698 44.2184 52.9456L47.7093 55.0789C49.8426 56.4365 51.2002 58.5698 51.2002 61.0911V65.9395C51.2002 67.1032 50.4244 67.8789 49.2608 67.8789Z" fill="#0D1789"/>
<path d="M20.1699 116.558C19.0062 116.558 18.2305 115.782 18.2305 114.618V102.594C18.2305 101.624 18.8123 100.848 19.782 100.654L26.3759 99.4909C27.3456 99.2969 28.5093 100.073 28.7032 101.042C28.8971 102.012 28.1214 103.176 27.1517 103.37L22.1093 104.339V114.812C22.1093 115.782 21.3335 116.558 20.1699 116.558Z" fill="#0D1789"/>
<path d="M16.4846 120.242C13.3816 120.242 10.8604 117.721 10.8604 114.618C10.8604 111.515 13.3816 108.994 16.4846 108.994C19.5876 108.994 22.1088 111.515 22.1088 114.618C22.1088 117.721 19.5876 120.242 16.4846 120.242ZM16.4846 112.872C15.5149 112.872 14.7391 113.648 14.7391 114.618C14.7391 115.588 15.5149 116.363 16.4846 116.363C17.4543 116.363 18.23 115.588 18.23 114.618C18.23 113.648 17.4543 112.872 16.4846 112.872Z" fill="#0D1789"/>
<path d="M73.8902 113.842H54.1084C50.2296 113.842 46.9326 110.546 46.9326 106.667V88.6303C46.9326 84.7516 50.2296 81.4546 54.1084 81.4546H74.0841C77.9629 81.4546 81.2599 84.7516 81.2599 88.6303V106.667C81.066 110.739 77.769 113.842 73.8902 113.842ZM54.1084 85.3334C52.169 85.3334 50.8114 86.691 50.8114 88.6303V106.667C50.8114 108.606 52.169 109.964 54.1084 109.964H73.8902C75.6356 109.964 77.1872 108.412 77.3811 106.473V88.6303C77.3811 86.691 76.0235 85.3334 74.0841 85.3334H54.1084Z" fill="#0D1789"/>
<path d="M57.9872 107.055C57.5994 107.055 57.4054 107.055 57.0175 106.861C56.4357 106.473 56.0479 105.891 56.0479 105.115V90.3757C56.0479 89.6 56.4357 89.0181 57.0175 88.6303C57.5994 88.2424 58.3751 88.2424 58.9569 88.6303L70.9812 96C71.563 96.3878 71.9509 96.9697 71.9509 97.7454C71.9509 98.5212 71.563 99.103 70.9812 99.4909L58.9569 106.861C58.763 107.055 58.3751 107.055 57.9872 107.055ZM59.9266 93.8666V101.624L66.3266 97.7454L59.9266 93.8666Z" fill="#0D1789"/>
<path d="M118.109 126.061H98.1328C94.254 126.061 90.957 122.764 90.957 118.885V100.849C90.957 96.9698 94.254 93.6729 98.1328 93.6729H118.109C121.987 93.6729 125.284 96.9698 125.284 100.849V118.885C125.284 122.764 121.987 126.061 118.109 126.061ZM98.1328 97.5516C96.1934 97.5516 94.8358 98.9092 94.8358 100.849V118.885C94.8358 120.824 96.1934 122.182 98.1328 122.182H118.109C120.048 122.182 121.406 120.824 121.406 118.885V100.849C121.406 98.9092 120.048 97.5516 118.109 97.5516H98.1328Z" fill="#0D1789"/>
<path d="M117.915 126.255H98.1328C94.254 126.255 90.957 122.958 90.957 119.079V118.303C90.957 117.721 91.151 117.334 91.5388 116.946L102.787 105.697C103.563 104.921 104.727 104.921 105.502 105.697L109.381 109.576L113.648 105.309C114.424 104.534 115.587 104.534 116.363 105.309L124.315 113.261C124.702 113.649 124.896 114.037 124.896 114.618V119.079C125.09 122.958 121.793 126.255 117.915 126.255ZM94.8358 119.079C94.8358 120.825 96.3873 122.376 98.1328 122.376H117.915C119.854 122.376 121.212 121.018 121.212 119.079V115.394L115.199 109.382L112.29 112.485L113.842 114.037C114.618 114.812 114.618 115.976 113.842 116.752C113.066 117.528 111.902 117.528 111.127 116.752L108.606 114.231C108.412 114.231 108.218 114.037 108.024 113.843C107.83 113.649 107.636 113.455 107.636 113.261L104.145 109.77L94.8358 119.079Z" fill="#0D1789"/>
<path d="M109.381 105.503C108.799 105.503 108.411 105.309 108.024 104.921L106.278 103.176C105.502 102.4 105.502 101.236 106.278 100.461C107.054 99.685 108.218 99.685 108.993 100.461L109.381 100.849L109.769 100.461C110.545 99.685 111.708 99.685 112.484 100.461C113.26 101.236 113.26 102.4 112.484 103.176L110.739 104.921C110.351 105.309 109.963 105.503 109.381 105.503Z" fill="#0D1789"/>
</svg>
