<svg width="128" height="128" viewBox="0 0 128 128" fill="none" xmlns="http://www.w3.org/2000/svg">
<g clip-path="url(#clip0_1254_1471)">
<path d="M126.756 51.3849C126.486 50.0314 125.169 49.1534 123.815 49.4239C122.461 49.6945 121.583 51.0118 121.854 52.3663C122.615 56.17 123.001 60.0851 123.001 64.0001C123.001 96.5333 96.5337 123 64.0005 123C51.0981 123 38.4985 118.734 28.2739 110.951C29.6636 107.829 29.0815 104.034 26.5239 101.477C23.2095 98.1622 17.8169 98.1622 14.5034 101.477C11.189 104.791 11.189 110.184 14.5034 113.497C16.1597 115.154 18.3364 115.984 20.5132 115.984C22.063 115.984 23.6118 115.561 24.9741 114.721C36.1147 123.296 49.8901 128 64.0005 128C81.0952 128 97.1675 121.343 109.255 109.255C121.343 97.1671 128.001 81.0948 128.001 64.0001C128.001 59.756 127.582 55.5118 126.756 51.3849ZM18.0386 109.962C16.6733 108.598 16.6733 106.377 18.0386 105.013C18.7212 104.33 19.6167 103.988 20.5132 103.988C21.4097 103.988 22.3062 104.33 22.9878 105.013C24.3149 106.339 24.3481 108.473 23.0942 109.845C23.0698 109.872 23.0444 109.897 23.021 109.925C23.02 109.927 23.019 109.928 23.0181 109.929C23.0073 109.94 22.9985 109.951 22.9878 109.962C21.6235 111.327 19.4028 111.327 18.0386 109.962Z" fill="#0D1789"/>
<path d="M6.15039 75.6523C5.38672 71.8428 5 67.9219 5 64C5 31.4668 31.4668 5 64 5C76.9024 5 89.502 9.26562 99.7266 17.0488C98.3369 20.1709 98.919 23.9658 101.477 26.5234C103.134 28.1807 105.311 29.0088 107.487 29.0088C109.664 29.0088 111.841 28.1807 113.497 26.5234C116.812 23.209 116.812 17.8164 113.497 14.5029C110.661 11.666 106.303 11.2598 103.026 13.2793C91.8858 4.70312 78.1104 0 64 0C46.9053 0 30.833 6.65723 18.7451 18.7451C6.65723 30.833 0 46.9053 0 64C0 68.251 0.419922 72.502 1.24707 76.6348C1.48535 77.8223 2.5293 78.6436 3.69629 78.6436C3.8584 78.6436 4.02441 78.6279 4.18945 78.5947C5.54395 78.3232 6.42188 77.0059 6.15039 75.6523ZM109.962 18.0381C111.327 19.4023 111.327 21.623 109.962 22.9873C108.598 24.3525 106.377 24.3525 105.013 22.9873C103.685 21.6602 103.652 19.5264 104.907 18.1543C104.931 18.1279 104.956 18.1025 104.98 18.0752C104.98 18.0732 104.981 18.0723 104.982 18.0713C104.993 18.0605 105.002 18.0488 105.013 18.0381C105.694 17.3555 106.591 17.0146 107.487 17.0146C108.383 17.0146 109.279 17.3555 109.962 18.0381Z" fill="#0D1789"/>
<path d="M9.22758 85.9766C8.71 84.6973 7.25297 84.0801 5.9727 84.5977C4.69243 85.1162 4.07524 86.5742 4.59379 87.8535L4.63579 87.958C5.02934 88.9307 5.96489 89.5195 6.95317 89.5195C7.26567 89.5195 7.58403 89.4609 7.89067 89.3369C9.17094 88.8184 9.78813 87.3613 9.27055 86.0811L9.22758 85.9766Z" fill="#0D1789"/>
<path d="M64 40.5C51.042 40.5 40.5 51.042 40.5 64C40.5 76.958 51.042 87.5 64 87.5C76.958 87.5 87.5 76.958 87.5 64C87.5 51.042 76.958 40.5 64 40.5ZM64 82.5C53.7988 82.5 45.5 74.2012 45.5 64C45.5 53.7988 53.7988 45.5 64 45.5C74.2012 45.5 82.5 53.7988 82.5 64C82.5 74.2012 74.2012 82.5 64 82.5Z" fill="#0D1789"/>
<path d="M107.713 74.4219C109.094 74.4219 110.213 73.3027 110.213 71.9219V56.0322C110.213 54.6514 109.094 53.5322 107.713 53.5322H102.772C101.871 50.1729 100.541 46.9629 98.8008 43.9473L102.278 40.4697C102.747 40.001 103.011 39.3652 103.011 38.7012C103.011 38.0381 102.747 37.4023 102.277 36.9336L91.0381 25.7021C90.0615 24.7266 88.4795 24.7266 87.5029 25.7031L84.0293 29.1768C81.0137 27.4365 77.8037 26.1055 74.4443 25.2041V20.292C74.4443 18.9111 73.3252 17.792 71.9443 17.792H56.0557C54.6748 17.792 53.5557 18.9111 53.5557 20.292V25.2051C50.1963 26.1064 46.9863 27.4365 43.9707 29.1768L40.4961 25.7031C39.5205 24.7266 37.9385 24.7266 36.9619 25.7021L25.7227 36.9336C25.2529 37.4023 24.9893 38.0381 24.9893 38.7021C24.9893 39.3652 25.2529 40.001 25.7217 40.4697L29.1992 43.9473C27.459 46.9639 26.1279 50.1738 25.2266 53.5332H20.2959C18.916 53.5332 17.7969 54.6514 17.7959 56.0312L17.7871 71.9209C17.7871 72.584 18.0498 73.2207 18.5186 73.6895C18.9873 74.1582 19.624 74.4219 20.2871 74.4219H25.2275C26.1279 77.7812 27.459 80.9922 29.1992 84.0078L25.7031 87.5039C24.7266 88.4795 24.7266 90.0625 25.7021 91.0391L36.9336 102.278C37.4023 102.747 38.0381 103.011 38.7021 103.012C39.3652 103.012 40.001 102.748 40.4697 102.279L43.9707 98.7783C46.9863 100.52 50.1963 101.85 53.5557 102.751V107.709C53.5557 109.09 54.6748 110.209 56.0557 110.209H71.9453C73.3262 110.209 74.4453 109.09 74.4453 107.709V102.751C77.8047 101.85 81.0146 100.52 84.0303 98.7783L87.5303 102.279C87.999 102.748 88.6357 103.012 89.2988 103.012C89.9619 103.012 90.5986 102.747 91.0674 102.278L102.298 91.0391C103.274 90.0625 103.273 88.4805 102.298 87.5039L98.8018 84.0078C100.542 80.9922 101.872 77.7812 102.773 74.4219H107.713ZM98.3613 71.3965C97.4697 75.5439 95.8486 79.457 93.542 83.0264C92.9023 84.0166 93.041 85.3184 93.874 86.1514L96.9941 89.2715L89.2979 96.9746L86.1738 93.8516C85.3408 93.0176 84.0391 92.8799 83.0498 93.5195C79.4805 95.8262 75.5674 97.4473 71.4199 98.3389C70.2676 98.5859 69.4443 99.6045 69.4443 100.783V105.209H58.5557V100.783C58.5557 99.6045 57.7324 98.5859 56.5811 98.3389C52.4326 97.4473 48.5195 95.8262 44.9512 93.5195C43.9609 92.8799 42.6592 93.0186 41.8262 93.8516L38.7031 96.9746L31.0059 89.2715L34.126 86.1514C34.96 85.3184 35.0977 84.0166 34.458 83.0264C32.1514 79.457 30.5303 75.5439 29.6396 71.3965C29.3916 70.2441 28.373 69.4219 27.1953 69.4219H22.7881L22.7949 58.5322H27.1943C28.373 58.5322 29.3916 57.71 29.6387 56.5576C30.5303 52.4102 32.1514 48.4971 34.458 44.9277C35.0977 43.9385 34.96 42.6367 34.126 41.8037L31.0254 38.7021L38.7285 31.0059L41.8262 34.1035C42.6592 34.9365 43.9609 35.0752 44.9512 34.4355C48.5205 32.1289 52.4326 30.5078 56.5801 29.6162C57.7324 29.3691 58.5557 28.3506 58.5557 27.1719V22.792H69.4443V27.1719C69.4443 28.3506 70.2676 29.3691 71.4189 29.6162C75.5664 30.5078 79.4795 32.1289 83.0488 34.4355C84.0381 35.0752 85.3398 34.9365 86.1738 34.1035L89.2715 31.0059L96.9746 38.7021L93.873 41.8037C93.04 42.6367 92.9023 43.9385 93.541 44.9277C95.8486 48.4971 97.4697 52.4102 98.3604 56.5576C98.6084 57.71 99.627 58.5322 100.805 58.5322H105.213V69.4219H100.805C99.627 69.4219 98.6084 70.2451 98.3613 71.3965Z" fill="#0D1789"/>
<path d="M73.2617 60.0498L63.4258 53.7451C61.9814 52.8194 60.1484 52.7559 58.6426 53.5791C57.1367 54.4024 56.2012 55.9805 56.2012 57.6963V70.3047C56.2012 72.0205 57.1367 73.5977 58.6426 74.4209C59.3457 74.8057 60.1201 74.9971 60.8936 74.9971C61.7754 74.9971 62.6562 74.7481 63.4258 74.2549L73.2617 67.9512C74.6143 67.084 75.4209 65.6074 75.4209 64C75.4209 62.3936 74.6143 60.917 73.2617 60.0498ZM61.2012 69.7412V58.2588L70.1592 64L61.2012 69.7412Z" fill="#0D1789"/>
<path d="M123.598 41.0957C123.598 42.4766 122.478 43.5957 121.098 43.5957C119.717 43.5957 118.598 42.4766 118.598 41.0957C118.598 39.7148 119.717 38.5957 121.098 38.5957C122.478 38.5957 123.598 39.7148 123.598 41.0957Z" fill="#0D1789"/>
</g>
<defs>
<clipPath id="clip0_1254_1471">
<rect width="128" height="128" fill="white"/>
</clipPath>
</defs>
</svg>
