<svg width="128" height="128" viewBox="0 0 128 128" fill="none" xmlns="http://www.w3.org/2000/svg">
<g clip-path="url(#clip0_1254_1453)">
<path d="M58.9487 86.8164C59.9243 85.8389 59.9243 84.2568 58.9487 83.2793C57.9722 82.3047 56.3901 82.3047 55.4126 83.2793C54.438 84.2568 54.438 85.8389 55.4126 86.8164C56.3901 87.791 57.9722 87.791 58.9487 86.8164Z" fill="#0D1789"/>
<path d="M47.1133 27.4922C47.1133 42.6514 59.4463 54.9854 74.6055 54.9854C89.7647 54.9854 102.098 42.6514 102.098 27.4922C102.098 12.333 89.7647 0 74.6055 0C59.4463 0 47.1133 12.333 47.1133 27.4922ZM97.0996 27.4922C97.0996 39.8955 87.0088 49.9863 74.6055 49.9863C62.2022 49.9863 52.1113 39.8955 52.1113 27.4922C52.1113 15.0898 62.2022 4.99903 74.6055 4.99903C87.0088 4.99903 97.0996 15.0898 97.0996 27.4922Z" fill="#0D1789"/>
<path d="M28.9129 127.261C29.8816 128.238 31.4588 128.248 32.4402 127.282L44.5574 115.344C46.616 113.285 47.242 110.238 46.3367 107.588L48.9431 105.074C50.3465 103.719 52.1941 102.972 54.1472 102.972H87.3728C93.2674 102.972 98.8387 100.708 103.062 96.5979C103.236 96.429 101.743 98.1878 125.729 69.5198C129.287 65.3108 128.755 58.9905 124.542 55.429C120.355 51.9007 114.084 52.4075 110.516 56.5442L95.7684 71.7024C93.9061 69.4104 91.0662 67.9817 87.9978 67.9817H60.1277C56.1619 66.3225 51.9539 65.4827 47.6121 65.4827C35.5769 65.4827 25.0681 71.0413 19.4285 81.4632C17.0525 81.013 14.5466 81.7317 12.7439 83.5345L0.85425 95.4593C-0.116454 96.4329 -0.118407 98.0081 0.850344 98.9847L28.9129 127.261ZM47.6111 70.4807C51.4392 70.4807 55.1404 71.2512 58.614 72.7708C58.9304 72.9094 59.2713 72.9807 59.616 72.9807H87.9978C90.7078 72.9807 92.9969 75.1907 92.9969 77.9788C92.9969 80.7356 90.7547 82.9778 87.9978 82.9778H67.6062C66.2263 82.9778 65.1072 84.097 65.1072 85.4768C65.1072 86.8577 66.2263 87.9759 67.6062 87.9759H87.9978C93.5105 87.9759 97.9949 83.4915 97.9949 77.9788C97.9949 77.5393 97.9637 77.1038 97.907 76.6721C112.174 62.0071 114.185 59.9466 114.271 59.844C116.053 57.7415 119.215 57.4749 121.318 59.2483C123.424 61.0286 123.69 64.1887 121.904 66.303L99.4871 93.1018C96.2137 96.2444 91.9158 97.9739 87.3728 97.9739H54.1472C50.8914 97.9739 47.8093 99.219 45.4715 101.478L43.3474 103.528L23.7673 83.9485C28.3435 75.3636 36.9304 70.4807 47.6111 70.4807ZM16.281 87.0667C17.1052 86.2425 18.3709 86.094 19.3757 86.7151C19.8084 86.9788 18.5662 85.8479 41.0232 108.274C42.0222 109.273 41.9685 110.865 41.0369 111.796L30.7068 121.973L6.14917 97.2278L16.281 87.0667Z" fill="#0D1789"/>
<path d="M71.6061 12.4971V15.4258C68.6969 16.457 66.607 19.2354 66.607 22.4941C66.607 26.6279 69.9703 29.9922 74.1051 29.9922C75.483 29.9922 76.6041 31.1133 76.6041 32.4912C76.6041 33.8692 75.483 34.9902 74.1051 34.9902C73.0377 34.9902 71.8844 34.3193 70.86 33.0996C69.9713 32.043 68.3951 31.9072 67.3385 32.7949C66.2818 33.6836 66.1451 35.2598 67.0338 36.3164C68.3697 37.9053 69.941 39.0127 71.6061 39.5713V42.4883C71.6061 43.8692 72.7252 44.9873 74.1051 44.9873C75.485 44.9873 76.6041 43.8692 76.6041 42.4883V39.5596C79.5133 38.5274 81.6031 35.749 81.6031 32.4912C81.6031 28.3565 78.2398 24.9932 74.1051 24.9932C72.7271 24.9932 71.6061 23.8721 71.6061 22.4941C71.6061 21.1162 72.7271 19.9941 74.1051 19.9941C74.9908 19.9941 75.9254 20.4463 76.8082 21.3008C77.8004 22.2607 79.3824 22.2344 80.3424 21.2432C81.3023 20.251 81.276 18.6689 80.2848 17.709C79.0162 16.4814 77.7467 15.7871 76.6041 15.4082V12.4971C76.6041 11.1162 75.485 9.99707 74.1051 9.99707C72.7252 9.99707 71.6061 11.1162 71.6061 12.4971Z" fill="#0D1789"/>
</g>
<defs>
<clipPath id="clip0_1254_1453">
<rect width="127.75" height="128" fill="white"/>
</clipPath>
</defs>
</svg>
