<svg width="128" height="128" viewBox="0 0 128 128" fill="none" xmlns="http://www.w3.org/2000/svg">
<g clip-path="url(#clip0_1254_1466)">
<path d="M98.1001 53.509C98.1001 28.8157 78.0817 8.79834 53.3884 8.79834C28.6951 8.79834 8.67773 28.8157 8.67773 53.509C8.67773 78.2023 28.6951 98.2207 53.3884 98.2207C78.0696 98.1925 98.0709 78.1913 98.1001 53.509ZM12.9358 53.509C12.9358 31.1683 31.0477 13.0564 53.3884 13.0564C75.7301 13.0564 93.841 31.1683 93.841 53.509C93.841 75.8507 75.7301 93.9626 53.3884 93.9626C31.0577 93.9364 12.961 75.8407 12.9358 53.509Z" fill="#0D1789"/>
<path d="M114.879 102.957L114.875 102.951L114.869 102.946L110.359 98.4363C109.563 97.6346 108.48 97.1845 107.351 97.1875H107.347C106.978 97.1925 106.612 97.2459 106.257 97.3456L100.906 91.9948C101.302 90.5325 100.888 88.9695 99.8196 87.8949L96.5465 84.6077C112.797 62.0705 109.012 30.831 87.8501 12.8269C66.6877 -5.17723 35.2457 -3.90727 15.604 15.7445C-4.03765 35.3962 -5.2915 66.8392 12.7237 87.9926C30.7379 109.146 61.9794 112.915 84.5085 96.6527L87.7735 99.9399C88.8381 101.027 90.4112 101.444 91.8735 101.026L97.2243 106.377C96.8073 107.84 97.2253 109.414 98.313 110.476L102.827 114.989L102.831 114.995L102.837 114.999L113.37 125.533C115.51 127.739 118.673 128.62 121.646 127.84C124.619 127.059 126.94 124.738 127.721 121.765C128.501 118.793 127.619 115.63 125.413 113.491L114.879 102.957ZM4.42006 53.5091C4.40395 31.9338 18.5115 12.8893 39.1563 6.61804C59.8011 0.347775 82.1176 8.32711 94.1042 26.2668C106.092 44.2064 104.926 67.8775 91.233 84.5513C91.1816 84.6147 91.1292 84.6761 91.0779 84.7386C89.1352 87.0781 86.9809 89.2333 84.6424 91.177C84.5659 91.2405 84.4894 91.3049 84.4128 91.3684C69.7805 103.378 49.5346 105.873 32.4248 97.7756C15.315 89.6775 4.40898 72.4387 4.42006 53.5091ZM88.7444 93.2517C89.1503 92.8901 89.5471 92.5205 89.9419 92.1469C90.6609 91.4661 91.3609 90.7661 92.0417 90.0461C92.4113 89.6553 92.7779 89.2625 93.1354 88.8607C93.3932 88.5716 93.6722 88.3027 93.924 88.0077L96.8053 90.9021L96.8093 90.9081L90.7878 96.9297V96.9307L87.9045 94.0292C88.1945 93.7814 88.4594 93.5055 88.7444 93.2517ZM98.314 95.424L102.83 99.9399L99.8196 102.95L95.3037 98.4343L98.314 95.424ZM107.347 101.445L110.358 104.457L104.336 110.478L101.325 107.466L107.347 101.445ZM122.402 122.522C120.717 124.131 118.065 124.131 116.381 122.522L107.348 113.489L113.368 107.468L122.402 116.501C123.201 117.298 123.649 118.382 123.649 119.511C123.649 120.64 123.201 121.724 122.402 122.522Z" fill="#0D1789"/>
<path d="M63.6105 82.6356C64.6881 80.995 65.9651 79.4965 67.4134 78.1731C70.7811 75.4851 72.5275 71.2523 72.036 66.971C74.4571 65.2448 76.1057 62.6405 76.6304 59.7148C77.4704 52.4807 75.4894 51.5532 74.7431 51.2037C74.2939 50.9932 73.8045 50.8804 73.308 50.8734C73.311 50.5249 73.3019 50.1392 73.2999 49.7756C78.1512 47.4975 81.0678 44.3372 81.0678 40.7348C81.0678 36.37 76.8621 32.6094 69.5414 30.2709C68.9925 27.4168 68.1355 24.6301 66.9874 21.9592C66.4717 20.8142 65.4777 19.9541 64.2702 19.6086C63.0626 19.2632 61.7635 19.4677 60.7211 20.1676C60.3837 20.3942 60.0161 20.6651 59.6143 20.9582C57.8851 22.5142 55.7047 23.4759 53.3894 23.7015C51.075 23.4759 48.8926 22.5142 47.1644 20.9572C46.7636 20.6641 46.395 20.3942 46.0576 20.1676C45.0152 19.4677 43.7171 19.2632 42.5105 19.6076C41.303 19.9531 40.31 20.8132 39.7954 21.9572C38.6453 24.6281 37.7882 27.4158 37.2383 30.2709C29.9166 32.6094 25.7109 36.37 25.7109 40.7348C25.7109 44.3372 28.6285 47.4975 33.4798 49.7746C33.4778 50.1372 33.4677 50.5219 33.4707 50.8704C32.9742 50.8784 32.4858 50.9922 32.0366 51.2037C31.2893 51.5532 29.3083 52.4807 30.1563 59.7863C30.6971 62.6848 32.3407 65.261 34.7437 66.97C34.2512 71.2512 35.9976 75.4841 39.3653 78.1731C40.8146 79.4965 42.0916 80.995 43.1682 82.6356C44.8752 85.0628 46.6407 87.5745 50.8655 87.5745H55.9132C60.139 87.5745 61.9035 85.0628 63.6105 82.6356ZM37.8255 53.6117C37.7852 52.9017 37.7489 52.1786 37.7368 51.3981C41.3695 52.4606 45.1109 53.1122 48.8896 53.3398C49.094 53.3549 49.2985 53.368 49.5039 53.3811C49.9964 53.4103 50.4879 53.4395 50.9894 53.4576C51.0811 53.4606 51.1697 53.4707 51.2613 53.4737V56.6179C49.2461 57.479 47.0617 57.8718 44.8732 57.767C41.9607 57.7026 39.2918 56.1285 37.8255 53.6117ZM55.5184 53.4737C55.611 53.4707 55.6987 53.4606 55.7903 53.4576C56.2918 53.4395 56.7833 53.4103 57.2758 53.3811C57.4822 53.368 57.6857 53.3549 57.8901 53.3398C61.6688 53.1122 65.4102 52.4606 69.0429 51.3981C69.0308 52.1786 68.9955 52.9017 68.9542 53.6117C67.4869 56.1285 64.818 57.7016 61.9065 57.767C59.718 57.8698 57.5356 57.48 55.5184 56.626V53.4737ZM43.6879 23.7066C43.9789 23.902 44.2972 24.1346 44.6426 24.3874C47.0869 26.5063 50.1606 27.7622 53.3894 27.9606C56.6181 27.7622 59.6929 26.5074 62.1371 24.3884C62.4815 24.1346 62.7998 23.902 63.11 23.7166C64.3256 26.6 65.1826 29.6223 65.662 32.7152C65.7375 33.1774 65.797 33.6357 65.8544 34.0939C65.8956 34.4172 65.943 34.7354 65.9762 35.0658C66.0387 35.6862 66.0769 36.2985 66.1071 36.9068C66.1152 37.074 66.1343 37.2361 66.1404 37.4043C62.8642 39.1728 59.2679 40.2715 55.5617 40.6361C54.8567 40.6995 54.1316 40.7348 53.3894 40.7348C51.3318 40.7267 49.2824 40.4679 47.2863 39.9644C44.9719 39.3883 42.7392 38.5272 40.6383 37.3992C40.6434 37.2331 40.6625 37.0729 40.6706 36.9078C40.7018 36.2965 40.74 35.6831 40.8025 35.0607C40.8357 34.7324 40.8831 34.4162 40.9243 34.0949C40.9818 33.6367 41.0422 33.1774 41.1157 32.7152C41.5951 29.6163 42.4592 26.5899 43.6879 23.7066ZM29.97 40.7348C29.97 38.7488 32.4586 36.6288 36.5233 35.0124C36.5102 35.1534 36.5152 35.2883 36.5041 35.4283C36.4175 36.4767 36.3571 37.5342 36.3571 38.6058C36.3571 39.3178 36.7126 39.9825 37.3048 40.3773C42.151 43.3402 47.7092 44.9355 53.3894 44.9929C59.0695 44.9355 64.6277 43.3402 69.4739 40.3773C70.0661 39.9825 70.4226 39.3178 70.4226 38.6058C70.4226 37.5342 70.3612 36.4767 70.2756 35.4273C70.2645 35.2873 70.2685 35.1534 70.2564 35.0124C74.3211 36.6288 76.8097 38.7488 76.8097 40.7348C76.8097 42.7208 74.3544 44.8257 70.2584 46.4451C69.9755 46.5579 69.6753 46.6596 69.3813 46.7664C65.1313 48.2035 60.6949 49.0163 56.2113 49.1774C56.0854 49.1834 55.9625 49.1945 55.8356 49.2006C55.034 49.2338 54.2182 49.2499 53.3894 49.2509C52.5605 49.2519 51.7457 49.2348 50.9441 49.2006C50.8162 49.1945 50.6933 49.1834 50.5674 49.1774C46.0838 49.0163 41.6475 48.2035 37.3974 46.7664C37.1044 46.6596 36.8033 46.5579 36.5213 46.4451C32.4243 44.8257 29.97 42.7228 29.97 40.7348ZM46.6508 80.1853C45.3838 78.2678 43.8802 76.5174 42.1762 74.9745C38.756 71.9683 38.8749 69.5523 39.0411 66.2086L39.0582 65.8642C39.0934 65.1089 38.7258 64.3908 38.0934 63.9779C37.9675 63.8953 37.8325 63.8268 37.6915 63.7745C35.9835 62.8046 34.7759 61.1459 34.3771 59.2233C34.2502 58.1226 34.2049 57.0137 34.2412 55.9069C36.483 59.6544 40.5074 61.9707 44.8732 62.0261C47.809 62.1601 50.7326 61.5749 53.3894 60.3201C56.0471 61.5749 58.9708 62.1601 61.9065 62.0261C66.2723 61.9697 70.2967 59.6534 72.5375 55.9059C72.5738 56.9845 72.5325 58.0631 72.4137 59.1357C72.036 61.0935 70.8204 62.7885 69.0872 63.7745C68.9462 63.8268 68.8122 63.8953 68.6864 63.9779C68.0529 64.3908 67.6863 65.1089 67.7215 65.8642L67.7387 66.2086C67.9048 69.5512 68.0227 71.9683 64.6025 74.9745C62.8985 76.5174 61.3949 78.2678 60.1279 80.1853C58.4571 82.5641 57.8347 83.3164 55.9132 83.3164H50.8655C48.944 83.3164 48.3226 82.5641 46.6508 80.1853Z" fill="#0D1789"/>
<path d="M61.2834 71.1748C60.4556 70.3449 59.1131 70.3379 58.2772 71.1597C57.5319 71.9311 56.5701 72.4589 55.5177 72.6714C54.3424 72.6714 53.3887 73.6241 53.3887 74.8004C53.3887 75.9767 54.3424 76.9294 55.5177 76.9294C57.7031 76.7169 59.7425 75.7421 61.2814 74.177C62.1113 73.3481 62.1113 72.0037 61.2834 71.1748Z" fill="#0D1789"/>
</g>
<defs>
<clipPath id="clip0_1254_1466">
<rect width="128" height="128" fill="white"/>
</clipPath>
</defs>
</svg>
