<svg width="128" height="128" viewBox="0 0 128 128" fill="none" xmlns="http://www.w3.org/2000/svg">
<path d="M70.5167 67.0963C70.6887 68.5143 70.3038 69.8141 69.4033 70.8553C68.5905 71.7951 67.3602 72.4796 65.945 72.8118V73.0688C65.945 74.1733 65.0495 75.0688 63.945 75.0688C62.8405 75.0688 61.945 74.1733 61.945 73.0688V72.7766C59.6707 72.1686 57.9455 70.5398 57.393 68.3233C57.1258 67.2516 57.778 66.1661 58.8498 65.8988C59.9225 65.6331 61.007 66.2841 61.2743 67.3556C61.594 68.6383 62.9933 69.0621 64.0853 69.0363C65.049 69.0133 65.9918 68.6856 66.3783 68.2388C66.5088 68.0878 66.5875 67.9178 66.5462 67.5786C66.5015 67.2103 66.3967 66.3478 63.6345 65.8946C58.7525 65.0926 57.8933 62.2886 57.8158 60.6886C57.692 58.1391 59.3342 55.9876 61.9455 55.2066V54.8763C61.9455 53.7718 62.841 52.8763 63.9455 52.8763C65.05 52.8763 65.9455 53.7718 65.9455 54.8763V55.1883C67.6225 55.6728 69.177 56.8201 70.0215 58.8316C70.449 59.8498 69.9703 61.0223 68.9518 61.4498C67.9328 61.8773 66.761 61.3986 66.3335 60.3801C65.703 58.8783 64.1292 58.7961 63.2982 58.9848C62.9362 59.0668 61.7588 59.4186 61.811 60.4948C61.8235 60.7558 61.8623 61.5501 64.2825 61.9476C68.08 62.5706 70.1775 64.3031 70.5167 67.0963ZM126 104.258C126 116.232 116.259 125.972 104.286 125.972C94.4308 125.972 86.0892 119.373 83.4457 110.361C77.8862 112.706 72.0177 114.006 65.945 114.24V123.917C65.945 125.022 65.0495 125.917 63.945 125.917C62.8405 125.917 61.945 125.022 61.945 123.917V114.24C35.791 113.212 14.7055 92.1263 13.6775 65.9723H4C2.8955 65.9723 2 65.0768 2 63.9723C2 62.8678 2.8955 61.9723 4 61.9723H13.6772C14.7052 35.8186 35.791 14.7328 61.9448 13.7048V4.02756C61.9448 2.92306 62.8403 2.02756 63.9448 2.02756C65.0493 2.02756 65.9447 2.92306 65.9447 4.02756V13.7058C73.505 14.0063 80.9117 16.0023 87.561 19.5401L104.488 2.61306C105.006 2.09556 105.765 1.90206 106.467 2.10881C107.17 2.31581 107.703 2.89006 107.857 3.60581L109.497 11.2141L111.278 9.43306C112.252 8.45856 113.552 7.92181 114.936 7.92181C116.32 7.92181 117.619 8.45831 118.594 9.43306C119.568 10.4078 120.105 11.7071 120.105 13.0913C120.105 14.4756 119.568 15.7746 118.594 16.7496L116.813 18.5303L124.421 20.1701C125.137 20.3243 125.711 20.8573 125.918 21.5598C126.125 22.2623 125.931 23.0218 125.414 23.5396L108.454 40.5001C111.944 47.1111 113.913 54.4681 114.212 61.9726H123.89C124.994 61.9726 125.89 62.8681 125.89 63.9726C125.89 65.0771 124.994 65.9726 123.89 65.9726H114.213C113.98 72.0218 112.689 77.8688 110.361 83.4098C119.386 86.0443 126 94.3928 126 104.258ZM110.207 61.9728C109.926 55.4511 108.271 49.0571 105.366 43.2516C105.18 43.3076 104.985 43.3366 104.789 43.3366C104.648 43.3366 104.507 43.3218 104.367 43.2916L94.2355 41.1081L90.7268 44.6168C94.3865 49.6818 96.546 55.7273 96.9275 61.9728H110.207ZM92.9898 63.9726C92.9898 58.0818 91.1772 52.3103 87.8552 47.4886L78.6265 56.7173C79.7373 58.9633 80.32 61.4416 80.32 63.9726C80.32 73.0018 72.9742 80.3476 63.945 80.3476C54.9157 80.3476 47.57 73.0018 47.57 63.9726C47.57 54.9433 54.9157 47.5976 63.945 47.5976C66.5342 47.5976 69.0628 48.2058 71.347 49.3648L80.559 40.1528C75.7102 36.7728 69.8922 34.9281 63.945 34.9281C47.9295 34.9281 34.9002 47.9573 34.9002 63.9728C34.9002 79.9883 47.9298 93.0178 63.945 93.0178C79.9602 93.0178 92.9898 79.9878 92.9898 63.9726ZM73.5465 59.6508C72.1623 59.6508 70.863 59.1143 69.8885 58.1396C68.914 57.1648 68.3773 55.8656 68.3773 54.4813C68.3773 53.8131 68.505 53.1656 68.7442 52.5638C67.2347 51.9286 65.607 51.5976 63.9453 51.5976C57.1218 51.5976 51.5703 57.1491 51.5703 63.9726C51.5703 70.7961 57.1218 76.3476 63.9453 76.3476C70.7688 76.3476 76.3203 70.7961 76.3203 63.9726C76.3203 62.3603 76.008 60.7771 75.4082 59.3038C74.8217 59.5288 74.1943 59.6508 73.5465 59.6508ZM113.447 21.8968L97.602 37.7418L104.145 39.1521L119.99 23.3071L113.447 21.8968ZM72.7168 53.6518C72.4978 53.8708 72.377 54.1656 72.377 54.4811C72.377 54.7971 72.4975 55.0916 72.7168 55.3106C72.9358 55.5298 73.2305 55.6503 73.5465 55.6503C73.8623 55.6503 74.157 55.5298 74.376 55.3108L115.766 13.9208C116.216 13.4711 116.216 12.7113 115.766 12.2616C115.541 12.0368 115.239 11.9241 114.937 11.9241C114.634 11.9241 114.332 12.0366 114.107 12.2616L72.7168 53.6518ZM88.8757 23.8826L90.286 30.4256L106.131 14.5808L104.72 8.03781L88.8757 23.8826ZM65.945 17.7103V30.9901C72.2455 31.3746 78.3357 33.5663 83.4285 37.2833L86.92 33.7918L84.7363 23.6603C84.6603 23.3076 84.6847 22.9483 84.7937 22.6158C78.9532 19.6703 72.5155 17.9938 65.945 17.7103ZM17.68 61.9726H30.9625C31.9605 45.3413 45.3137 31.9881 61.945 30.9901V17.7076C37.997 18.7306 18.703 38.0246 17.68 61.9726ZM61.945 110.238V96.9551C45.3137 95.9571 31.9605 82.6036 30.9625 65.9723H17.68C18.703 89.9206 37.997 109.215 61.945 110.238ZM82.6715 106.34C82.606 105.655 82.5713 104.961 82.5713 104.258C82.5713 92.2848 92.3123 82.5441 104.286 82.5441C104.978 82.5441 105.662 82.578 106.338 82.6418C108.67 77.3621 109.967 71.7693 110.21 65.9728H96.9275C95.9295 82.6038 82.576 95.9573 65.945 96.9553V110.238C71.763 109.994 77.375 108.688 82.6715 106.34ZM122 104.258C122 94.4906 114.053 86.5441 104.286 86.5441C94.518 86.5441 86.5713 94.4906 86.5713 104.258C86.5713 114.026 94.518 121.972 104.286 121.972C114.053 121.973 122 114.026 122 104.258ZM112.21 96.8191L100.49 107.455L96.4315 103.396C95.6508 102.615 94.3845 102.615 93.6032 103.396C92.8222 104.177 92.822 105.443 93.6032 106.224L99.0095 111.631C99.399 112.02 99.911 112.216 100.424 112.216C100.905 112.216 101.386 112.044 101.768 111.697L114.898 99.7811C115.716 99.0388 115.777 97.7741 115.035 96.9561C114.292 96.1381 113.028 96.0763 112.21 96.8191Z" fill="#0D1789"/>
</svg>
