<svg width="128" height="128" viewBox="0 0 128 128" fill="none" xmlns="http://www.w3.org/2000/svg">
<g clip-path="url(#clip0_1246_12)">
<path d="M63.9468 30.0878H63.9607C70.2974 30.0838 75.4318 24.9444 75.4278 18.6068C75.4238 12.2701 70.2844 7.13567 63.9468 7.13965H63.9418C57.6052 7.14164 52.4697 12.2791 52.4707 18.6167C52.4717 24.9534 57.6101 30.0898 63.9468 30.0878ZM63.9518 11.2193H63.9557C68.0394 11.2183 71.3511 14.5281 71.3521 18.6117C71.3531 22.6954 68.0434 26.0071 63.9597 26.0081H63.9518C63.9498 26.0081 63.9488 25.9703 63.9468 25.9713C59.891 25.9454 56.6161 22.6496 56.6171 18.5928C56.6181 14.536 59.896 11.2422 63.9518 11.2193Z" fill="#0D1789"/>
<path d="M90.6171 22.6929H90.7735C97.0404 22.6511 102.086 17.5366 102.043 11.2697C102.002 5.00374 96.887 -0.0420625 90.6201 -0.00023004H90.6151C84.3492 0.000765973 79.2695 5.08143 79.2695 11.3474C79.2705 17.6143 84.3512 22.6939 90.6171 22.6929ZM90.6261 4.07944H90.6291C92.5753 4.07745 94.4428 4.84936 95.8203 6.22486C97.1968 7.60135 97.9707 9.46788 97.9697 11.4151C97.9796 13.3314 97.2197 15.172 95.8611 16.5256C94.5036 17.8782 92.6599 18.6302 90.7426 18.6133H90.6201C86.6072 18.6123 83.3552 15.3573 83.3562 11.3444C83.3572 7.33043 86.6121 4.07845 90.6251 4.07944H90.6261Z" fill="#0D1789"/>
<path d="M21.0761 57.1152H45.6428V62.4887C45.6766 63.6241 46.6139 64.5235 47.7503 64.5096H80.1537C80.6835 64.5106 81.1915 64.2954 81.559 63.914C81.9276 63.5335 82.1238 63.0186 82.1048 62.4887V57.1152H106.927C107.447 57.1351 107.953 56.9379 108.323 56.5704C108.693 56.2038 108.894 55.6988 108.878 55.1779V40.2258C108.9 36.0475 107.251 32.0336 104.3 29.0764C101.348 26.1182 97.3359 24.4639 93.1576 24.4778H88.3528C82.1746 24.4788 76.5461 28.0286 73.8828 33.6033C71.582 32.3254 68.9993 31.6431 66.3688 31.6172H61.5581C58.9336 31.6431 56.3579 32.3224 54.0611 33.5913C51.4246 28.0226 45.8131 24.4728 39.6508 24.4778H34.8828C30.7066 24.4539 26.6926 26.0973 23.7345 29.0455C20.7753 31.9937 19.1159 36.0007 19.1249 40.177V55.1779C19.109 55.6988 19.3092 56.2038 19.6797 56.5704C20.0492 56.9379 20.5552 57.1351 21.0761 57.1152ZM88.3528 28.5575H93.1377C96.2373 28.5375 99.2154 29.7607 101.407 31.9529C103.598 34.1451 104.819 37.1232 104.798 40.2228V53.0355H82.1048V47.5365C82.1367 43.3373 80.4883 39.3005 77.5262 36.3234C77.4236 36.2208 77.3409 36.1869 77.2363 36.0883C79.058 31.5445 83.4584 28.5644 88.3528 28.5575ZM61.5611 35.6969H66.3648C69.4784 35.6999 72.4585 36.9559 74.6367 39.18C76.8339 41.4021 78.0541 44.409 78.0252 47.5335V60.4299H49.7224V47.4907C49.7613 40.9758 55.0461 35.7118 61.5611 35.6969ZM23.2046 40.181C23.1946 37.0843 24.4247 34.1132 26.6189 31.93C28.8141 29.7467 31.7912 28.5316 34.8868 28.5575H39.6458C44.5083 28.5565 48.8748 31.5365 50.6438 36.0664C47.4705 39.0116 45.6597 43.1411 45.6428 47.4708V53.0355H23.2046V40.181Z" fill="#0D1789"/>
<path d="M37.2728 22.6932H37.2788C43.5647 22.6932 48.5816 17.745 48.7021 11.3596C48.7021 11.3467 48.7021 11.3765 48.7021 11.3636C48.6872 5.06878 43.5686 -0.020852 37.2728 6.42376e-05H37.2679C30.9641 -0.000931776 25.8525 5.10762 25.8525 11.4114C25.8595 14.4253 27.0687 17.3128 29.2131 19.4303C31.3575 21.5488 34.2589 22.7231 37.2728 22.6932ZM32.0796 6.20722C33.4581 4.83073 35.3306 4.0638 37.2788 4.07974H37.2828C39.226 4.06579 41.0945 4.82973 42.471 6.20224C43.8475 7.54786 44.6234 9.39048 44.6224 11.3158C44.5348 15.4462 41.3127 18.6136 37.2788 18.6136H37.2738C35.3336 18.6265 33.4691 17.8646 32.0906 16.498C30.7131 15.1325 29.9362 13.2729 29.9332 11.3327C29.9272 9.40443 30.7011 7.55582 32.0796 6.20722Z" fill="#0D1789"/>
<path d="M87.4938 84.4621C87.1094 84.0856 86.5895 83.8794 86.0516 83.8884H86.0496L74.7 83.8775C74.1612 83.8755 73.6443 84.0876 73.2618 84.4671C72.8803 84.8466 72.6642 85.3625 72.6632 85.9014L72.6273 104.048C72.6184 108.811 68.7698 112.674 64.0068 112.701H63.9959C59.2479 112.675 55.4162 108.813 55.4282 104.065L55.4491 93.8894C55.4561 93.8177 55.459 93.746 55.459 93.6742C55.459 93.6135 55.4551 93.5507 55.4501 93.49L55.464 85.9342C55.466 85.3924 55.2519 84.8725 54.8694 84.488C54.4869 84.1045 53.967 83.8884 53.4242 83.8884H53.4192L42.0706 83.9223C40.9491 83.9263 40.0417 84.8366 40.0427 85.9581L40.0328 93.6982V93.7031L40.0069 104.069C39.9939 110.418 42.5099 116.511 46.9979 121.001C51.4859 125.491 57.5776 128.01 63.9262 128H64.0009C77.2409 128 88.0357 117.2 88.0655 103.959L88.0785 94.5258C88.0944 94.3874 88.0944 94.247 88.0785 94.1085L88.0904 85.8934C88.0914 85.3555 87.8773 84.8396 87.4938 84.4621ZM84.0088 87.9213L84.0028 92.2888L76.7299 92.3027L76.7389 87.9302L84.0088 87.9213ZM51.3804 87.9751L51.3734 91.6384L44.1045 91.6523L44.1125 87.996L51.3804 87.9751ZM63.9899 123.92H63.9281C58.6602 123.931 53.6045 121.843 49.8794 118.116C46.1543 114.39 44.0676 109.334 44.0796 104.065L44.0965 95.727L51.3654 95.7161L51.3485 104.037C51.3216 111.049 56.9839 116.755 63.9959 116.781H64.0118C71.0228 116.746 76.6921 111.06 76.707 104.048L76.7219 96.4033L83.9968 96.3774L83.9859 103.956C83.945 114.977 75.0118 123.896 63.9899 123.92Z" fill="#0D1789"/>
<path d="M46.9862 79.5537C48.1186 79.5318 49.026 78.6075 49.026 77.4741L49.0469 70.3725C49.0489 69.8326 48.8358 69.3137 48.4543 68.9313C48.0718 68.5488 47.5539 68.3346 47.0141 68.3346H47.0071C46.4702 68.3277 45.9533 68.5358 45.5708 68.9113C45.1874 69.2878 44.9702 69.8008 44.9673 70.3376L44.9453 77.4771C44.9394 78.6095 45.8467 79.5368 46.9792 79.5537H46.9862Z" fill="#0D1789"/>
<path d="M55.9354 83.3365L60.9583 78.3136C61.7551 77.5168 61.7551 76.226 60.9583 75.4292C60.1615 74.6323 58.8697 74.6323 58.0739 75.4292L53.05 80.452C52.2542 81.2489 52.2542 82.5397 53.05 83.3365C53.8468 84.1333 55.1386 84.1333 55.9354 83.3365Z" fill="#0D1789"/>
<path d="M42.1529 82.0375C42.9497 81.2417 42.9497 79.9499 42.1529 79.1531L37.13 74.1302C36.3312 73.3483 35.0523 73.3553 34.2615 74.1461C33.4716 74.9359 33.4636 76.2148 34.2455 77.0146L39.2684 82.0375C40.0652 82.8343 41.3561 82.8343 42.1529 82.0375Z" fill="#0D1789"/>
<path d="M80.8055 79.2985C81.3403 79.3105 81.8573 79.1073 82.2407 78.7348C82.6242 78.3623 82.8423 77.8513 82.8453 77.3164L82.8572 70.2876C82.8543 69.7557 82.6361 69.2477 82.2517 68.8792C81.8682 68.5117 81.3513 68.3145 80.8204 68.3344H80.8164C80.2826 68.3204 79.7656 68.5216 79.3822 68.8931C78.9987 69.2637 78.7806 69.7736 78.7766 70.3075L78.7656 77.3413C78.7676 77.8732 78.9857 78.3822 79.3692 78.7507C79.7537 79.1202 80.2706 79.3174 80.8025 79.2985H80.8055Z" fill="#0D1789"/>
<path d="M94.303 77.6262C95.0839 76.8274 95.0769 75.5485 94.2871 74.7577C93.4963 73.9678 92.2174 73.9609 91.4186 74.7417L86.3847 79.7756C85.5879 80.5724 85.5879 81.8642 86.3847 82.661C87.1815 83.4578 88.4734 83.4578 89.2702 82.661L94.303 77.6262Z" fill="#0D1789"/>
<path d="M74.6794 82.5935C75.5041 82.5935 76.2481 82.0965 76.5639 81.3345C76.8796 80.5726 76.7053 79.6951 76.1216 79.1114L71.0987 74.0885C70.2999 73.2997 69.0151 73.3037 68.2222 74.0975C67.4294 74.8903 67.4254 76.1752 68.2133 76.973L73.2372 81.9959C73.6186 82.3794 74.1376 82.5945 74.6794 82.5935Z" fill="#0D1789"/>
</g>
<defs>
<clipPath id="clip0_1246_12">
<rect width="128" height="128" fill="white"/>
</clipPath>
</defs>
</svg>
