<svg width="128" height="128" viewBox="0 0 128 128" fill="none" xmlns="http://www.w3.org/2000/svg">
<path d="M70 16H58C56.896 16 56 15.104 56 14C56 12.896 56.896 12 58 12H70C71.104 12 72 12.896 72 14C72 15.104 71.104 16 70 16Z" fill="#0D1789"/>
<path d="M86 124H42C36.484 124 32 119.512 32 114V46C32 44.896 32.896 44 34 44C35.104 44 36 44.896 36 46V114C36 117.308 38.692 120 42 120H86C89.308 120 92 117.308 92 114V46C92 44.896 92.896 44 94 44C95.104 44 96 44.896 96 46V114C96 119.512 91.516 124 86 124Z" fill="#0D1789"/>
<path d="M94 60C92.896 60 92 59.104 92 58V14C92 10.692 89.308 8 86 8H42C38.692 8 36 10.692 36 14V58C36 59.104 35.104 60 34 60C32.896 60 32 59.104 32 58V14C32 8.488 36.484 4 42 4H86C91.516 4 96 8.488 96 14V58C96 59.104 95.104 60 94 60Z" fill="#0D1789"/>
<path d="M106 24.2C104.896 24.2 104 23.504 104 22.4V22C104 20.896 104.896 20 106 20C107.104 20 108 20.896 108 22C108 23.104 107.104 24.2 106 24.2Z" fill="#0D1789"/>
<path d="M106 32.2C104.896 32.2 104 31.504 104 30.4V30C104 28.896 104.896 28 106 28C107.104 28 108 28.896 108 30C108 31.104 107.104 32.2 106 32.2Z" fill="#0D1789"/>
<path d="M106 40.2C104.896 40.2 104 39.504 104 38.4V38C104 36.896 104.896 36 106 36C107.104 36 108 36.896 108 38C108 39.104 107.104 40.2 106 40.2Z" fill="#0D1789"/>
<path d="M22 91.8001C20.896 91.8001 20 91.1041 20 90.0001V89.6001C20 88.4961 20.896 87.6001 22 87.6001C23.104 87.6001 24 88.4961 24 89.6001C24 90.7041 23.104 91.8001 22 91.8001Z" fill="#0D1789"/>
<path d="M22 99.8001C20.896 99.8001 20 99.1041 20 98.0001V97.6001C20 96.4961 20.896 95.6001 22 95.6001C23.104 95.6001 24 96.4961 24 97.6001C24 98.7041 23.104 99.8001 22 99.8001Z" fill="#0D1789"/>
<path d="M22 107.8C20.896 107.8 20 107.104 20 106V105.6C20 104.496 20.896 103.6 22 103.6C23.104 103.6 24 104.496 24 105.6C24 106.704 23.104 107.8 22 107.8Z" fill="#0D1789"/>
<path d="M99.364 108C99.224 108 99.08 107.988 98.94 107.956C97.86 107.724 97.176 106.66 97.408 105.58L98.728 99.46C98.888 98.708 99.468 98.12 100.212 97.94C102.1 97.484 103.94 96.716 105.68 95.656C106.324 95.256 107.152 95.268 107.796 95.676L111.756 98.208L114.208 95.736L111.676 91.808C111.26 91.164 111.252 90.336 111.648 89.684C112.708 87.944 113.476 86.104 113.928 84.216C114.108 83.472 114.692 82.896 115.44 82.728L120 81.716V78.288L115.444 77.276C114.696 77.108 114.112 76.532 113.932 75.788C113.48 73.9 112.708 72.06 111.652 70.32C111.252 69.668 111.26 68.844 111.676 68.2L114.212 64.236L111.764 61.788L107.8 64.324C107.156 64.736 106.332 64.744 105.684 64.344C103.94 63.284 102.1 62.516 100.216 62.06C99.468 61.88 98.892 61.288 98.732 60.54L97.748 56H96C94.896 56 94 55.104 94 54C94 52.896 94.896 52 96 52H99.36C100.3 52 101.116 52.66 101.312 53.58L102.38 58.512C103.844 58.956 105.28 59.556 106.664 60.304L110.96 57.556C111.752 57.052 112.784 57.164 113.452 57.828L118.176 62.548C118.84 63.212 118.952 64.248 118.444 65.04L115.696 69.336C116.444 70.724 117.044 72.16 117.488 73.628L122.428 74.724C123.348 74.928 124 75.744 124 76.68V83.32C124 84.256 123.348 85.072 122.432 85.272L117.492 86.368C117.048 87.836 116.448 89.272 115.7 90.656L118.444 94.912C118.956 95.7 118.848 96.74 118.184 97.404L113.46 102.164C112.792 102.832 111.756 102.944 110.964 102.44L106.668 99.692C105.28 100.44 103.848 101.04 102.384 101.484L101.316 106.416C101.112 107.36 100.28 108 99.364 108Z" fill="#0D1789"/>
<path d="M101.564 90.312C100.924 90.312 100.292 90 99.9037 89.428C99.2877 88.512 99.5317 87.268 100.452 86.652C102.672 85.156 104 82.668 104 80C104 75.588 100.412 72 95.9997 72C95.4557 72 94.9157 72.056 94.3997 72.16C93.3277 72.376 92.2597 71.688 92.0357 70.6C91.8157 69.516 92.5117 68.46 93.5957 68.24C94.3797 68.084 95.1877 68 95.9997 68C102.616 68 108 73.384 108 80C108 84.004 106.012 87.732 102.676 89.972C102.336 90.2 101.948 90.312 101.564 90.312Z" fill="#0D1789"/>
<path d="M32 59.9998C25.384 59.9998 20 54.6158 20 47.9998C20 43.9798 22 40.2478 25.352 38.0078C26.26 37.3998 27.508 37.6398 28.124 38.5638C28.736 39.4798 28.488 40.7238 27.568 41.3358C25.336 42.8318 24 45.3198 24 47.9998C24 52.4118 27.588 55.9998 32 55.9998C32.536 55.9998 33.064 55.9478 33.568 55.8438C34.628 55.6238 35.704 56.3238 35.924 57.4118C36.144 58.4958 35.44 59.5478 34.356 59.7638C33.592 59.9198 32.808 59.9998 32 59.9998Z" fill="#0D1789"/>
<path d="M32 75.9998H28.64C27.7 75.9998 26.884 75.3398 26.688 74.4198L25.62 69.4878C24.156 69.0438 22.72 68.4438 21.336 67.6958L17.04 70.4438C16.244 70.9478 15.216 70.8398 14.548 70.1718L9.824 65.4518C9.16 64.7878 9.048 63.7518 9.556 62.9598L12.304 58.6638C11.556 57.2758 10.956 55.8398 10.512 54.3718L5.572 53.2758C4.652 53.0718 4 52.2558 4 51.3198V44.6798C4 43.7438 4.652 42.9278 5.568 42.7278L10.508 41.6318C10.952 40.1638 11.552 38.7278 12.3 37.3438L9.56 33.0838C9.048 32.2958 9.156 31.2558 9.82 30.5918L14.544 25.8318C15.204 25.1598 16.244 25.0478 17.04 25.5558L21.336 28.3038C22.724 27.5558 24.156 26.9558 25.62 26.5118L26.688 21.5798C26.92 20.4958 28.004 19.8078 29.064 20.0478C30.144 20.2798 30.828 21.3438 30.596 22.4238L29.276 28.5438C29.116 29.2958 28.536 29.8838 27.792 30.0638C25.904 30.5198 24.064 31.2878 22.32 32.3478C21.672 32.7478 20.848 32.7358 20.204 32.3278L16.244 29.7958L13.788 32.2678L16.32 36.1958C16.74 36.8398 16.748 37.6678 16.348 38.3198C15.288 40.0598 14.52 41.8998 14.068 43.7878C13.888 44.5318 13.304 45.1078 12.556 45.2758L8 46.2838V49.7118L12.556 50.7238C13.304 50.8918 13.888 51.4678 14.068 52.2118C14.52 54.0998 15.292 55.9398 16.348 57.6798C16.748 58.3318 16.74 59.1558 16.324 59.7998L13.788 63.7598L16.236 66.2078L20.2 63.6718C20.844 63.2638 21.672 63.2558 22.316 63.6518C24.06 64.7118 25.9 65.4798 27.784 65.9358C28.532 66.1158 29.108 66.7078 29.268 67.4558L30.252 71.9998H32C33.104 71.9998 34 72.8958 34 73.9998C34 75.1038 33.104 75.9998 32 75.9998Z" fill="#0D1789"/>
<path d="M62.0004 73.9999C61.8404 73.9999 61.6804 73.9799 61.5164 73.9399C60.4404 73.6719 59.7924 72.5879 60.0604 71.5159L64.0604 55.5159C64.3244 54.4399 65.3924 53.7919 66.4844 54.0599C67.5604 54.3279 68.2084 55.4119 67.9404 56.4839L63.9404 72.4839C63.7164 73.3959 62.9004 73.9999 62.0004 73.9999Z" fill="#0D1789"/>
<path d="M74 73.9999C73.488 73.9999 72.976 73.8039 72.584 73.4159C71.804 72.6359 71.804 71.3679 72.584 70.5879L79.172 63.9999L72.588 57.4159C71.808 56.6359 71.808 55.3679 72.588 54.5879C73.368 53.8079 74.636 53.8079 75.416 54.5879L83.416 62.5879C84.196 63.3679 84.196 64.6359 83.416 65.4159L75.416 73.4159C75.024 73.8039 74.512 73.9999 74 73.9999Z" fill="#0D1789"/>
<path d="M54 73.9999C53.488 73.9999 52.976 73.8039 52.584 73.4159L44.584 65.4159C43.804 64.6359 43.804 63.3679 44.584 62.5879L52.584 54.5879C53.364 53.8079 54.632 53.8079 55.412 54.5879C56.192 55.3679 56.192 56.6359 55.412 57.4159L48.828 63.9999L55.412 70.5839C56.192 71.3639 56.192 72.6319 55.412 73.4119C55.024 73.8039 54.512 73.9999 54 73.9999Z" fill="#0D1789"/>
</svg>
