<svg width="128" height="128" viewBox="0 0 128 128" fill="none" xmlns="http://www.w3.org/2000/svg">
<path d="M71.5545 114.729C71.5545 115.557 70.8828 116.229 70.0545 116.229H59.695C58.8668 116.229 58.195 115.557 58.195 114.729C58.195 113.901 58.8668 113.229 59.695 113.229H70.0545C70.883 113.229 71.5545 113.901 71.5545 114.729ZM113.759 75.8395C113.934 76.4905 113.653 77.178 113.072 77.52L109.636 79.5445L112.798 91.3445C113.365 93.459 112.105 95.6407 109.991 96.2075C109.648 96.2992 109.303 96.3432 108.964 96.3432C107.211 96.3432 105.602 95.1717 105.127 93.3997L104.814 92.23C103.881 91.679 102.345 90.8963 100.231 90.2095V113.071C100.231 119.924 94.6555 125.5 87.8018 125.5H40.1983C33.3445 125.5 27.7687 119.924 27.7687 113.071V85.8027H10.3905C6.03975 85.8027 2.5 82.263 2.5 77.9122V59.3355C2.5 54.9847 6.03975 51.445 10.3905 51.445H27.7687V14.9295C27.7687 8.07575 33.3445 2.5 40.1983 2.5H87.802C94.6558 2.5 100.231 8.07575 100.231 14.9295V54.1463C100.763 54.2083 101.282 54.3767 101.761 54.6527C102.681 55.184 103.339 56.0392 103.612 57.0612L106.774 68.8615L110.762 68.8968C111.436 68.9025 112.022 69.3575 112.197 70.0085L113.759 75.8395ZM10.3905 82.8027H29.2687C29.6162 82.8027 29.953 82.9235 30.2215 83.1442L40.0133 91.1973V84.3027C40.0133 83.4745 40.685 82.8027 41.5133 82.8027H46.919C49.6155 82.8027 51.8095 80.609 51.8095 77.9122V59.3355C51.8095 56.639 49.6158 54.445 46.919 54.445H10.3905C7.694 54.445 5.5 56.6387 5.5 59.3355V77.9122C5.5 80.609 7.694 82.8027 10.3905 82.8027ZM97.2313 89.415C93.2698 88.5843 87.9883 88.3 81.454 89.7282C80.6908 89.895 79.9248 90.0797 79.1595 90.2742L84.271 99.1275C85.451 101.172 84.7483 103.794 82.7043 104.975C82.032 105.363 81.297 105.547 80.5713 105.547C79.0908 105.547 77.649 104.78 76.8573 103.408L70.6338 92.629C70.6178 92.6332 70.6018 92.6377 70.5858 92.642C69.9183 92.821 69.2413 92.9092 68.569 92.9092C67.1933 92.9092 65.8365 92.5387 64.6172 91.8142C62.8002 90.7345 61.4888 88.979 60.924 86.8715C60.3593 84.7642 60.6175 82.5882 61.6513 80.7445C62.6838 78.9027 64.3725 77.5883 66.4065 77.0433C67.6323 76.7148 68.8785 76.4015 70.0838 76.0985C72.4625 75.5005 74.9223 74.8822 77.2755 74.1325C89.6073 70.2035 94.6863 63.066 96.2548 60.286L95.9413 59.116C95.6675 58.0943 95.8092 57.0245 96.3405 56.1045C96.577 55.695 96.8805 55.3413 97.2315 55.0465V14.9295C97.2315 9.73 93.0015 5.5 87.802 5.5H40.1983C34.9988 5.5 30.7687 9.73 30.7687 14.9295V51.4455H46.919C51.2698 51.4455 54.8095 54.9852 54.8095 59.336V77.9128C54.8095 82.2635 51.2698 85.8033 46.919 85.8033H43.0133V94.3735C43.0133 94.9537 42.6785 95.482 42.1538 95.7298C41.9495 95.8263 41.7308 95.8735 41.5133 95.8735C41.172 95.8735 40.834 95.7572 40.5603 95.532L30.7685 87.479V113.071C30.7685 118.27 34.9985 122.501 40.198 122.501H87.8018C93.0013 122.501 97.2313 118.27 97.2313 113.071V89.415ZM74.2443 91.6212C74.0373 91.6802 73.8277 91.7397 73.6185 91.7992L79.455 101.908C79.808 102.52 80.5928 102.73 81.204 102.377C81.8155 102.024 82.0258 101.239 81.6728 100.628L76.16 91.0795C75.517 91.2592 74.8778 91.441 74.2443 91.6212ZM79.2832 87.1525L76.6825 77.4467C74.723 78.022 72.7433 78.5237 70.8148 79.0085C69.6208 79.3087 68.386 79.619 67.1825 79.9413C65.9365 80.275 64.9015 81.0815 64.2678 82.2117C63.619 83.3687 63.4605 84.7483 63.8215 86.0953C64.1825 87.4423 65.0092 88.5577 66.1497 89.2355C67.2635 89.8975 68.563 90.078 69.8092 89.7445C71.013 89.4217 72.2383 89.073 73.423 88.7357C75.335 88.1915 77.2992 87.634 79.2832 87.1525ZM103.767 88.3215L97.3018 64.195C93.473 69.421 87.116 73.8628 79.5435 76.5335L82.2183 86.5155C90.112 85.0418 97.838 85.71 103.767 88.3215ZM109.901 92.121L100.714 57.8375C100.648 57.5898 100.487 57.3813 100.26 57.2508C100.109 57.1633 99.9415 57.1185 99.773 57.1185C99.6903 57.1185 99.607 57.1292 99.5253 57.1512C99.2775 57.2177 99.069 57.3787 98.9383 57.605C98.8078 57.8312 98.7723 58.0923 98.8388 58.34L108.025 92.6235C108.161 93.1315 108.705 93.4457 109.214 93.31C109.722 93.1737 110.037 92.6293 109.901 92.121ZM110.567 75.5145L109.594 71.8865L107.579 71.8685L108.831 76.5372L110.567 75.5145ZM111.519 66.3418C111.755 66.478 112.013 66.543 112.268 66.543C112.786 66.543 113.29 66.274 113.568 65.7927L116.981 59.8807C117.396 59.1632 117.15 58.246 116.433 57.8317C115.715 57.4175 114.798 57.6632 114.383 58.3807L110.97 64.2927C110.556 65.0102 110.802 65.9275 111.519 66.3418ZM125.449 69.5825C125.235 68.7822 124.412 68.3073 123.612 68.5218L117.018 70.2885C116.218 70.5027 115.743 71.3253 115.957 72.1255C116.137 72.7958 116.743 73.2377 117.405 73.2377C117.534 73.2377 117.665 73.2212 117.795 73.1862L124.389 71.4195C125.189 71.205 125.664 70.3825 125.449 69.5825ZM122.966 82.2182L117.055 78.805C116.337 78.391 115.42 78.6367 115.006 79.354C114.591 80.0715 114.837 80.9887 115.555 81.403L121.466 84.8163C121.703 84.9525 121.961 85.0175 122.215 85.0175C122.734 85.0175 123.238 84.7485 123.516 84.2673C123.93 83.5498 123.684 82.6325 122.966 82.2182ZM72.897 29.6945C72.897 30.8685 72.2885 31.9208 71.2695 32.5093L63.2308 37.1502C62.7205 37.4447 62.161 37.592 61.602 37.592C61.0445 37.592 60.4873 37.4455 59.9795 37.1525C58.9628 36.5655 58.3558 35.5125 58.3558 34.3358V25.0535C58.3558 23.8767 58.9628 22.824 59.9793 22.2367C60.996 21.6497 62.2115 21.6505 63.2305 22.2388L71.2692 26.8797C72.2887 27.4682 72.897 28.5205 72.897 29.6945ZM69.8973 29.6945C69.8973 29.5517 69.8013 29.4963 69.7695 29.478L61.7308 24.837C61.6878 24.8122 61.6448 24.7997 61.6023 24.7997C61.5608 24.7997 61.5198 24.8115 61.4795 24.8347C61.3558 24.9062 61.3558 25.017 61.3558 25.0535V34.3358C61.3558 34.3723 61.3558 34.483 61.4795 34.5545C61.6033 34.6258 61.6995 34.5702 61.7308 34.5522L69.7695 29.9112C69.801 29.8927 69.8973 29.8375 69.8973 29.6945ZM80.2798 46.4355H47.7205C44.1365 46.4355 41.2205 43.5195 41.2205 39.9355V19.4535C41.2205 15.8695 44.1365 12.9535 47.7205 12.9535H80.2798C83.8638 12.9535 86.7798 15.8695 86.7798 19.4535V39.9352C86.7795 43.5195 83.8638 46.4355 80.2798 46.4355ZM47.7205 43.4355H80.2798C82.2095 43.4355 83.7798 41.8655 83.7798 39.9355V19.4535C83.7798 17.5238 82.2098 15.9535 80.2798 15.9535H47.7205C45.7905 15.9535 44.2205 17.5235 44.2205 19.4535V39.9352C44.2205 41.8652 45.7905 43.4355 47.7205 43.4355ZM13.141 63.093H44.1683C44.9965 63.093 45.6683 62.4212 45.6683 61.593C45.6683 60.7647 44.9965 60.093 44.1683 60.093H13.141C12.3127 60.093 11.641 60.7647 11.641 61.593C11.641 62.4212 12.3127 63.093 13.141 63.093ZM13.141 70.1243H44.1683C44.9965 70.1243 45.6683 69.4525 45.6683 68.6243C45.6683 67.796 44.9965 67.1243 44.1683 67.1243H13.141C12.3127 67.1243 11.641 67.796 11.641 68.6243C11.641 69.4525 12.3127 70.1243 13.141 70.1243ZM30.7687 75.6555C30.7687 74.8273 30.097 74.1555 29.2687 74.1555H13.141C12.3127 74.1555 11.641 74.8273 11.641 75.6555C11.641 76.4838 12.3127 77.1555 13.141 77.1555H29.2687C30.097 77.1555 30.7687 76.4838 30.7687 75.6555Z" fill="#0D1789"/>
</svg>
