<svg width="128" height="128" viewBox="0 0 128 128" fill="none" xmlns="http://www.w3.org/2000/svg">
<g clip-path="url(#clip0_1241_452)">
<path d="M109.255 18.745C97.1667 6.65725 81.095 0 64 0C46.905 0 30.8333 6.65725 18.745 18.745C6.65725 30.8333 0 46.905 0 64C0 81.095 6.65725 97.1667 18.745 109.255C30.8333 121.343 46.905 128 64 128C81.095 128 97.1667 121.343 109.255 109.255C121.343 97.1667 128 81.095 128 64C128 46.905 121.343 30.8333 109.255 18.745ZM111.076 26.3925C119.225 36.553 123.819 48.9767 124.218 62.125H113.972V50.101C113.972 45.6808 110.376 42.0848 105.955 42.0848H95.9157C95.2637 38.6718 94.4665 35.3763 93.5208 32.2323C99.4983 30.745 105.358 28.7965 111.076 26.3925ZM65.8755 3.872C72.7195 4.73625 79.2385 10.3102 84.404 19.793C84.8992 20.7022 86.0378 21.0378 86.9475 20.5425C87.8568 20.0472 88.1925 18.9085 87.6973 17.999C84.754 12.596 81.3568 8.3245 77.663 5.30025C88.536 7.80925 98.5167 13.3105 106.603 21.3967C107.257 22.0505 107.892 22.718 108.511 23.3958C103.242 25.548 97.8505 27.3045 92.3558 28.658C92.025 27.7095 91.6855 26.7705 91.3272 25.8538C90.9505 24.8892 89.8627 24.4125 88.8985 24.7897C87.934 25.1665 87.4575 26.254 87.8345 27.2185C88.1268 27.9662 88.4068 28.7288 88.68 29.4993C81.2398 31.0778 73.6223 31.9312 65.8755 32.0485V3.872ZM65.875 35.7995C74.025 35.6797 82.037 34.771 89.859 33.0835C90.7323 35.9582 91.4823 38.9648 92.1008 42.0848H65.875V35.7995ZM62.125 3.8695V32.0482C54.3822 31.9285 46.769 31.0735 39.3327 29.4937C41.338 23.845 43.8277 18.845 46.6797 14.823C51.296 8.3125 56.6012 4.5625 62.125 3.8695ZM62.125 35.7988V42.0848H35.8993C36.519 38.9688 37.2757 35.9545 38.1525 33.0775C45.9705 34.766 53.979 35.6765 62.125 35.7988ZM21.397 21.397C29.48 13.3137 39.4563 7.8135 50.325 5.30325C47.9635 7.2425 45.7167 9.69775 43.621 12.6535C40.456 17.117 37.7668 22.52 35.6338 28.6455C30.1465 27.291 24.7625 25.5353 19.5 23.384C20.1162 22.7103 20.7472 22.0467 21.397 21.397ZM16.9345 26.3797C22.6483 28.784 28.5035 30.733 34.4762 32.2215C33.5365 35.3538 32.7342 38.6497 32.0793 42.0848H22.0448C17.6245 42.0848 14.0282 45.6808 14.0282 50.101V62.125H3.78175C4.18125 48.9712 8.779 36.5427 16.9345 26.3797ZM16.929 101.614C8.77725 91.4522 4.18125 79.026 3.78175 65.875H14.028V77.899C14.028 82.3193 17.6243 85.9153 22.0445 85.9153H32.084C32.7362 89.3298 33.5338 92.6273 34.4798 95.7725C28.5038 97.2607 22.6458 99.2095 16.929 101.614ZM62.1247 124.128C55.2855 123.264 48.77 117.697 43.6063 108.225C43.1108 107.316 41.9717 106.981 41.0625 107.477C40.1533 107.972 39.818 109.111 40.3138 110.02C43.2545 115.414 46.6483 119.679 50.338 122.7C39.4643 120.191 29.4832 114.689 21.3967 106.603C20.745 105.951 20.1122 105.286 19.4942 104.61C24.7625 102.458 30.1525 100.701 35.6457 99.3465C35.9682 100.271 36.299 101.187 36.6475 102.081C36.9365 102.822 37.6447 103.275 38.395 103.275C38.6215 103.275 38.8517 103.234 39.0755 103.147C40.0402 102.771 40.5177 101.684 40.1418 100.719C39.8585 99.9928 39.5868 99.2525 39.3213 98.5045C46.7612 96.9248 54.3783 96.07 62.1247 95.9515V124.128ZM62.125 92.201C53.9755 92.322 45.964 93.2318 38.1427 94.9202C37.2687 92.0445 36.518 89.0365 35.8993 85.9153H62.125V92.201ZM22.0448 82.1653C19.6922 82.1653 17.7782 80.2515 17.7782 77.899V50.101C17.7782 47.7485 19.6922 45.8348 22.0448 45.8348H105.955C108.308 45.8348 110.222 47.7485 110.222 50.101V77.899H110.222C110.222 80.2515 108.308 82.1653 105.955 82.1653H22.0448ZM92.101 85.9153C91.4815 89.03 90.7253 92.0428 89.849 94.9185C82.0303 93.231 74.0215 92.322 65.875 92.201V85.9153H92.101ZM65.875 124.131V95.9515C73.6182 96.07 81.232 96.924 88.6687 98.5025C86.6632 104.153 84.173 109.154 81.3203 113.177C76.704 119.688 71.3988 123.438 65.875 124.131ZM106.603 106.603C98.52 114.686 88.5438 120.186 77.675 122.697C80.0365 120.757 82.2832 118.302 84.3792 115.346C87.545 110.882 90.2347 105.477 92.368 99.3497C97.8565 100.704 103.242 102.459 108.506 104.61C107.888 105.286 107.255 105.951 106.603 106.603ZM111.071 101.614C105.356 99.2103 99.4993 97.2617 93.525 95.7738C94.4642 92.643 95.2658 89.3485 95.9208 85.9153H105.955C110.376 85.9153 113.972 82.3193 113.972 77.899V65.875H124.218C123.819 79.026 119.223 91.4522 111.071 101.614Z" fill="#0D1789"/>
<path d="M59.1151 70.1411H48.9658V65.8749H57.6121C58.6476 65.8749 59.4871 65.0354 59.4871 63.9999C59.4871 62.9644 58.6476 62.1249 57.6121 62.1249H48.9658V57.8589H59.1151C60.1506 57.8589 60.9901 57.0194 60.9901 55.9839C60.9901 54.9484 60.1506 54.1089 59.1151 54.1089H47.0908C46.0553 54.1089 45.2158 54.9484 45.2158 55.9839V72.0161C45.2158 73.0516 46.0553 73.8911 47.0908 73.8911H59.1151C60.1506 73.8911 60.9901 73.0516 60.9901 72.0161C60.9901 70.9806 60.1506 70.1411 59.1151 70.1411Z" fill="#0D1789"/>
<path d="M39.576 54.1089C38.5405 54.1089 37.701 54.9484 37.701 55.9839V66.3912L29.0518 54.8589C28.5675 54.2132 27.724 53.9502 26.9588 54.2052C26.1933 54.4604 25.6768 55.1769 25.6768 55.9839V72.0162C25.6768 73.0517 26.5163 73.8912 27.5518 73.8912C28.5873 73.8912 29.4268 73.0517 29.4268 72.0162V61.6089L38.076 73.1412C38.437 73.6224 38.9973 73.8912 39.5763 73.8912C39.774 73.8912 39.974 73.8599 40.169 73.7949C40.9345 73.5397 41.451 72.8232 41.451 72.0162V55.9839C41.451 54.9482 40.6115 54.1089 39.576 54.1089Z" fill="#0D1789"/>
<path d="M84.1095 54.1791C83.1127 53.8988 82.0772 54.4793 81.797 55.4763L79.093 65.0908L76.3887 55.4763C76.1612 54.6676 75.4237 54.1088 74.5837 54.1088C73.7437 54.1088 73.0062 54.6676 72.7787 55.4763L70.0747 65.0908L67.3707 55.4763C67.0905 54.4793 66.0557 53.8983 65.0582 54.1791C64.0615 54.4593 63.4805 55.4948 63.761 56.4916L68.27 72.5238C68.4975 73.3326 69.235 73.8913 70.075 73.8913C70.915 73.8913 71.6525 73.3326 71.88 72.5238L74.584 62.9093L77.2882 72.5238C77.5157 73.3326 78.2532 73.8913 79.0932 73.8913C79.9332 73.8913 80.6707 73.3326 80.8982 72.5238L85.4072 56.4916C85.6872 55.4948 85.1065 54.4593 84.1095 54.1791Z" fill="#0D1789"/>
<path d="M96.1908 62.1934C92.3108 61.1156 91.5518 60.3864 91.5518 59.4909C91.5518 58.9924 93.1145 57.8589 95.6888 57.8589C98.2628 57.8589 99.8258 58.9924 99.8258 59.4909C99.8258 60.5264 100.665 61.3659 101.701 61.3659C102.736 61.3659 103.576 60.5264 103.576 59.4909C103.576 56.4226 100.185 54.1089 95.6888 54.1089C91.1925 54.1089 87.8018 56.4226 87.8018 59.4909C87.8018 63.7551 92.246 64.9896 95.187 65.8066C99.067 66.8844 99.826 67.6136 99.826 68.5091C99.826 69.0076 98.263 70.1411 95.689 70.1411C93.115 70.1411 91.552 69.0076 91.552 68.5091C91.552 67.4736 90.7125 66.6341 89.677 66.6341C88.6415 66.6341 87.802 67.4736 87.802 68.5091C87.802 71.5774 91.1928 73.8911 95.689 73.8911C100.185 73.8911 103.576 71.5774 103.576 68.5091C103.576 64.2449 99.1318 63.0104 96.1908 62.1934Z" fill="#0D1789"/>
</g>
<defs>
<clipPath id="clip0_1241_452">
<rect width="128" height="128" fill="white"/>
</clipPath>
</defs>
</svg>
