<svg width="128" height="128" viewBox="0 0 128 128" fill="none" xmlns="http://www.w3.org/2000/svg">
<path d="M68.638 64.7998C70.6196 63.7624 72.1962 62.0906 73.1158 60.0517C74.0354 58.0127 74.2448 55.7243 73.7107 53.5523C73.1765 51.3803 71.9296 49.4501 70.1692 48.0702C68.4089 46.6903 66.2367 45.9404 64 45.9404C61.7633 45.9404 59.5911 46.6903 57.8308 48.0702C56.0704 49.4501 54.8235 51.3803 54.2893 53.5523C53.7552 55.7243 53.9646 58.0127 54.8842 60.0517C55.8038 62.0906 57.3804 63.7624 59.362 64.7998C56.6281 65.7619 54.2598 67.5479 52.5831 69.9119C50.9065 72.2759 50.004 75.1016 50 77.9998C50 78.5303 50.2107 79.039 50.5858 79.414C50.9609 79.7891 51.4696 79.9998 52 79.9998H76C76.5304 79.9998 77.0391 79.7891 77.4142 79.414C77.7893 79.039 78 78.5303 78 77.9998C77.996 75.1016 77.0935 72.2759 75.4169 69.9119C73.7402 67.5479 71.3719 65.7619 68.638 64.7998ZM64 49.9998C65.1867 49.9998 66.3467 50.3517 67.3334 51.011C68.3201 51.6703 69.0891 52.6074 69.5433 53.7037C69.9974 54.8001 70.1162 56.0065 69.8847 57.1704C69.6532 58.3343 69.0818 59.4034 68.2426 60.2425C67.4035 61.0816 66.3344 61.653 65.1705 61.8845C64.0067 62.1161 62.8003 61.9972 61.7039 61.5431C60.6075 61.089 59.6705 60.3199 59.0112 59.3332C58.3519 58.3466 58 57.1865 58 55.9998C58 54.4085 58.6321 52.8824 59.7574 51.7572C60.8826 50.632 62.4087 49.9998 64 49.9998ZM54.2 75.9998C54.659 73.7393 55.8855 71.7069 57.6715 70.2471C59.4575 68.7873 61.6933 67.9898 64 67.9898C66.3067 67.9898 68.5425 68.7873 70.3285 70.2471C72.1145 71.7069 73.341 73.7393 73.8 75.9998H54.2Z" fill="#0D1789"/>
<path d="M106 86.0001C101.387 85.9966 96.9163 87.595 93.3515 90.5221L83.7235 80.8941C87.5285 76.4637 89.7221 70.8759 89.9475 65.0401L110.372 64.2841C110.941 66.1304 112.164 67.7058 113.811 68.7154C115.459 69.7251 117.417 70.0998 119.321 69.7694C121.225 69.439 122.943 68.4261 124.153 66.9204C125.364 65.4147 125.985 63.5194 125.899 61.5892C125.813 59.659 125.026 57.8263 123.687 56.4341C122.347 55.0419 120.546 54.1857 118.62 54.0257C116.695 53.8657 114.777 54.4129 113.226 55.5648C111.675 56.7168 110.597 58.3946 110.194 60.2841L89.8175 61.0381C89.3811 57.2509 88.1172 53.606 86.1154 50.3617C84.1135 47.1173 81.4227 44.3528 78.2335 42.2641L82.0555 35.3161C84.9004 36.3091 88.0144 36.197 90.7805 35.0021C93.5466 33.8072 95.7628 31.6166 96.9898 28.8646C98.2169 26.1126 98.3652 23.0001 97.4054 20.1439C96.4457 17.2877 94.4478 14.8963 91.8079 13.4438C89.168 11.9912 86.0787 11.5835 83.1523 12.3014C80.2259 13.0194 77.6761 14.8105 76.0082 17.3199C74.3403 19.8293 73.676 22.8738 74.1471 25.8499C74.6181 28.826 76.1902 31.5165 78.5515 33.3881L74.7275 40.3401C70.2304 38.2808 65.2365 37.5566 60.3396 38.2536C55.4428 38.9507 50.8493 41.0397 47.1055 44.2721L37.4775 34.6441C40.7308 30.6653 42.3303 25.5883 41.9452 20.4633C41.5601 15.3382 39.2199 10.5572 35.4087 7.10919C31.5974 3.66117 26.6067 1.80993 21.4688 1.93839C16.3309 2.06686 11.4389 4.16519 7.80474 7.79937C4.17056 11.4336 2.07223 16.3255 1.94377 21.4634C1.8153 26.6013 3.66654 31.5921 7.11456 35.4033C10.5626 39.2146 15.3436 41.5548 20.4686 41.9398C25.5937 42.3249 30.6707 40.7254 34.6495 37.4721L44.2775 47.1001C41.7297 50.0416 39.8827 53.5228 38.8756 57.2817C37.8685 61.0405 37.7276 64.9789 38.4635 68.8001L20.8975 73.5281C19.784 71.3675 17.9161 69.6907 15.6483 68.816C13.3804 67.9413 10.8703 67.9295 8.59435 68.7829C6.31837 69.6363 4.43482 71.2954 3.30111 73.4456C2.16739 75.5957 1.86239 78.0872 2.44398 80.4473C3.02556 82.8074 4.45326 84.8719 6.45619 86.2491C8.45911 87.6263 10.8979 88.2203 13.3098 87.9185C15.7217 87.6167 17.9389 86.44 19.5407 84.6117C21.1425 82.7835 22.0174 80.4308 21.9995 78.0001C21.9995 77.8001 21.9515 77.6001 21.9375 77.4001L39.5155 72.6681C41.5391 78.3497 45.4677 83.1553 50.6335 86.2681L46.3995 94.7201C43.0359 93.5936 39.3703 93.7831 36.1407 95.2504C32.9111 96.7176 30.3572 99.3538 28.993 102.628C27.6288 105.903 27.5556 109.572 28.7882 112.899C30.0207 116.225 32.4675 118.961 35.636 120.556C38.8045 122.151 42.4596 122.486 45.8655 121.495C49.2714 120.503 52.1753 118.258 53.9927 115.212C55.8101 112.166 56.4062 108.544 55.6608 105.076C54.9155 101.608 52.8841 98.5508 49.9755 96.5201L54.1995 88.0681C58.6164 89.879 63.4485 90.4314 68.1602 89.6643C72.8718 88.8972 77.2791 86.8405 80.8935 83.7221L90.5215 93.3501C87.6516 96.8663 86.0638 101.254 86.019 105.793C85.9742 110.331 87.4751 114.75 90.275 118.322C93.0749 121.894 97.0071 124.407 101.425 125.448C105.843 126.488 110.483 125.994 114.583 124.048C118.683 122.101 121.998 118.817 123.984 114.735C125.969 110.654 126.507 106.018 125.508 101.591C124.509 97.1636 122.033 93.2079 118.488 90.3744C114.942 87.5409 110.538 85.9982 106 86.0001ZM118 58.0001C118.791 58.0001 119.564 58.2347 120.222 58.6743C120.88 59.1138 121.392 59.7385 121.695 60.4694C121.998 61.2003 122.077 62.0046 121.923 62.7805C121.768 63.5564 121.387 64.2692 120.828 64.8286C120.269 65.388 119.556 65.7689 118.78 65.9233C118.004 66.0776 117.2 65.9984 116.469 65.6957C115.738 65.3929 115.113 64.8802 114.674 64.2224C114.234 63.5646 114 62.7913 114 62.0001C114 60.9393 114.421 59.9219 115.171 59.1717C115.921 58.4216 116.939 58.0001 118 58.0001ZM85.9995 16.0001C87.5818 16.0001 89.1285 16.4693 90.4441 17.3484C91.7597 18.2274 92.7851 19.4769 93.3906 20.9387C93.9961 22.4005 94.1545 24.009 93.8458 25.5609C93.5371 27.1127 92.7752 28.5382 91.6564 29.657C90.5376 30.7758 89.1121 31.5377 87.5602 31.8464C86.0084 32.1551 84.3999 31.9967 82.938 31.3912C81.4762 30.7857 80.2268 29.7603 79.3478 28.4447C78.4687 27.1291 77.9995 25.5824 77.9995 24.0001C77.9995 21.8784 78.8424 19.8436 80.3427 18.3433C81.843 16.843 83.8778 16.0001 85.9995 16.0001ZM11.9995 84.0001C10.8128 84.0001 9.65279 83.6482 8.66609 82.989C7.6794 82.3297 6.91037 81.3926 6.45624 80.2962C6.00211 79.1999 5.88329 77.9935 6.1148 76.8296C6.34632 75.6657 6.91776 74.5966 7.75688 73.7575C8.59599 72.9184 9.66509 72.3469 10.829 72.1154C11.9929 71.8839 13.1993 72.0027 14.2956 72.4569C15.392 72.911 16.329 73.68 16.9883 74.6667C17.6476 75.6534 17.9995 76.8135 17.9995 78.0001C17.9995 79.5914 17.3674 81.1176 16.2422 82.2428C15.1169 83.368 13.5908 84.0001 11.9995 84.0001ZM51.9995 108C51.9995 109.978 51.413 111.911 50.3142 113.556C49.2154 115.2 47.6536 116.482 45.8264 117.239C43.9991 117.996 41.9884 118.194 40.0486 117.808C38.1088 117.422 36.327 116.47 34.9284 115.071C33.5299 113.673 32.5775 111.891 32.1917 109.951C31.8058 108.011 32.0038 106.001 32.7607 104.173C33.5176 102.346 34.7993 100.784 36.4438 99.6854C38.0883 98.5866 40.0217 98.0001 41.9995 98.0001C44.6507 98.0033 47.1924 99.0579 49.0671 100.933C50.9418 102.807 51.9963 105.349 51.9995 108ZM5.99952 22.0001C5.9933 19.4005 6.62065 16.8384 7.82726 14.5357C9.03387 12.233 10.7834 10.259 12.9245 8.78448C15.0656 7.30997 17.5337 6.37938 20.1153 6.07324C22.6969 5.76709 25.3142 6.09462 27.7408 7.02747C30.1673 7.96032 32.33 9.47039 34.0417 11.427C35.7535 13.3837 36.9626 15.7279 37.5646 18.257C38.1666 20.786 38.1433 23.4236 37.4966 25.9416C36.85 28.4596 35.5996 30.7821 33.8535 32.7081C33.9458 32.4833 33.9953 32.2432 33.9995 32.0001C34.0046 30.4237 33.6968 28.8619 33.0939 27.4052C32.4911 25.9485 31.6052 24.626 30.4875 23.5141C29.6905 22.7172 28.7857 22.0359 27.7995 21.4901C28.8805 20.3568 29.605 18.9312 29.8832 17.39C30.1615 15.8487 29.9812 14.2597 29.3648 12.82C28.7484 11.3802 27.723 10.1531 26.4157 9.29069C25.1084 8.4283 23.5767 7.9686 22.0105 7.9686C20.4444 7.9686 18.9127 8.4283 17.6053 9.29069C16.298 10.1531 15.2726 11.3802 14.6562 12.82C14.0398 14.2597 13.8595 15.8487 14.1378 17.39C14.4161 18.9312 15.1406 20.3568 16.2215 21.4901C14.3386 22.5246 12.7678 24.0456 11.6734 25.8943C10.5789 27.7431 10.0008 29.8517 9.99952 32.0001C10.0036 32.2407 10.051 32.4785 10.1395 32.7021C7.47733 29.7734 6.00139 25.958 5.99952 22.0001ZM21.9995 20.0001C21.2084 20.0001 20.435 19.7655 19.7772 19.326C19.1194 18.8865 18.6067 18.2618 18.304 17.5309C18.0012 16.8 17.922 15.9957 18.0764 15.2198C18.2307 14.4439 18.6117 13.7311 19.1711 13.1717C19.7305 12.6123 20.4432 12.2313 21.2192 12.077C21.9951 11.9227 22.7993 12.0019 23.5303 12.3046C24.2612 12.6074 24.8859 13.1201 25.3254 13.7779C25.7649 14.4357 25.9995 15.209 25.9995 16.0001C25.9995 17.061 25.5781 18.0784 24.8279 18.8286C24.0778 19.5787 23.0604 20.0001 21.9995 20.0001ZM21.9995 24.0001C23.7731 24.0001 25.4964 24.5895 26.8985 25.6756C28.3007 26.7617 29.3021 28.2829 29.7455 30.0001H14.2515C14.6972 28.2838 15.6995 26.7636 17.1016 25.6779C18.5036 24.5921 20.2262 24.0021 21.9995 24.0001ZM11.2995 33.8601C11.5224 33.9489 11.7596 33.9964 11.9995 34.0001H31.9995C32.2431 33.9968 32.4839 33.9479 32.7095 33.8561C29.7822 36.5194 25.967 37.9952 22.0095 37.9952C18.052 37.9952 14.2368 36.5194 11.3095 33.8561L11.2995 33.8601ZM41.9995 64.0001C41.9995 59.649 43.2898 55.3955 45.7072 51.7776C48.1246 48.1597 51.5605 45.3399 55.5805 43.6748C59.6005 42.0097 64.0239 41.574 68.2915 42.4229C72.5591 43.2717 76.4791 45.367 79.5559 48.4438C82.6326 51.5205 84.7279 55.4406 85.5768 59.7082C86.4257 63.9757 85.99 68.3992 84.3249 72.4192C82.6597 76.4392 79.8399 79.8751 76.2221 82.2925C72.6042 84.7099 68.3507 86.0001 63.9995 86.0001C58.1669 85.9933 52.5751 83.6732 48.4508 79.5489C44.3265 75.4246 42.0064 69.8328 41.9995 64.0001ZM95.2995 117.86C95.5224 117.949 95.7596 117.996 95.9995 118H116C116.243 117.997 116.484 117.948 116.71 117.856C113.782 120.519 109.967 121.995 106.01 121.995C102.052 121.995 98.2368 120.519 95.3095 117.856L95.2995 117.86ZM106 104C105.208 104 104.435 103.766 103.777 103.326C103.119 102.886 102.607 102.262 102.304 101.531C102.001 100.8 101.922 99.9957 102.076 99.2198C102.231 98.4439 102.612 97.7311 103.171 97.1717C103.73 96.6123 104.443 96.2313 105.219 96.077C105.995 95.9227 106.799 96.0019 107.53 96.3046C108.261 96.6074 108.886 97.1201 109.325 97.7779C109.765 98.4357 110 99.209 110 100C110 101.061 109.578 102.078 108.828 102.829C108.078 103.579 107.06 104 106 104ZM106 108C107.773 108 109.496 108.59 110.899 109.676C112.301 110.762 113.302 112.283 113.746 114H98.2515C98.6972 112.284 99.6995 110.764 101.102 109.678C102.504 108.592 104.226 108.002 106 108ZM117.852 116.708C117.944 116.483 117.995 116.243 118 116C118.005 114.424 117.697 112.862 117.094 111.405C116.491 109.949 115.605 108.626 114.488 107.514C113.69 106.717 112.786 106.036 111.8 105.49C112.88 104.357 113.605 102.931 113.883 101.39C114.161 99.8487 113.981 98.2597 113.365 96.82C112.748 95.3802 111.723 94.1531 110.416 93.2907C109.108 92.4283 107.577 91.9686 106.011 91.9686C104.444 91.9686 102.913 92.4283 101.605 93.2907C100.298 94.1531 99.2726 95.3802 98.6562 96.82C98.0398 98.2597 97.8595 99.8487 98.1378 101.39C98.4161 102.931 99.1406 104.357 100.222 105.49C98.3386 106.525 96.7678 108.046 95.6734 109.894C94.5789 111.743 94.0008 113.852 93.9995 116C94.0036 116.241 94.051 116.478 94.1395 116.702C92.0598 114.407 90.691 111.557 90.1994 108.499C89.7077 105.441 90.1143 102.306 91.3697 99.4741C92.6251 96.6425 94.6755 94.2362 97.2719 92.5472C99.8683 90.8582 102.899 89.9592 105.997 89.9592C109.094 89.9592 112.125 90.8582 114.721 92.5472C117.318 94.2362 119.368 96.6425 120.623 99.4741C121.879 102.306 122.285 105.441 121.794 108.499C121.302 111.557 119.933 114.407 117.854 116.702L117.852 116.708Z" fill="#0D1789"/>
</svg>
