<svg width="128" height="128" viewBox="0 0 128 128" fill="none" xmlns="http://www.w3.org/2000/svg">
<g clip-path="url(#clip0_1246_7)">
<path d="M120.858 24.2002L127.415 17.6427C127.604 17.4577 127.754 17.2371 127.857 16.9935C127.961 16.75 128.015 16.4884 128.016 16.2238C128.018 15.9593 127.967 15.6971 127.866 15.4525C127.765 15.2078 127.617 14.9855 127.43 14.7985C127.243 14.6115 127.021 14.4634 126.776 14.3629C126.531 14.2623 126.269 14.2114 126.005 14.2129C125.74 14.2144 125.479 14.2683 125.235 14.3716C124.992 14.4749 124.771 14.6255 124.586 14.8147L117.475 21.9264C117.289 22.1129 117.141 22.3344 117.041 22.5782C116.94 22.822 116.889 23.0832 116.89 23.3469C116.89 23.4099 116.811 29.7469 113.268 33.2902L110.94 35.6184L107.83 32.5082C107.455 32.1331 106.947 31.9224 106.416 31.9224C105.886 31.9224 105.377 32.1331 105.002 32.5082C104.627 32.8832 104.416 33.392 104.416 33.9224C104.416 34.4529 104.627 34.9616 105.002 35.3367L119.358 49.6929L110.065 58.9862C109.801 59.2504 109.616 59.5833 109.531 59.9471C109.446 60.311 109.465 60.6914 109.586 61.045C109.706 61.3987 109.923 61.7115 110.213 61.9481C110.502 62.1847 110.851 62.3356 111.222 62.3837C112.165 62.5029 113.056 62.8846 113.793 63.4853C114.53 64.086 115.083 64.8815 115.391 65.7813C115.698 66.6811 115.746 67.649 115.53 68.5749C115.314 69.5009 114.843 70.3476 114.169 71.0187C113.212 71.9736 111.915 72.5098 110.563 72.5098C109.211 72.5098 107.914 71.9736 106.957 71.0187C106.168 70.2221 105.667 69.1848 105.534 68.0714C105.486 67.7009 105.335 67.3512 105.099 67.062C104.862 66.7728 104.549 66.5557 104.196 66.4352C103.842 66.3148 103.462 66.2959 103.098 66.3805C102.734 66.4652 102.401 66.6502 102.137 66.9144L91.7366 77.3144L82.3226 67.9002C82.0584 67.6359 81.7254 67.451 81.3615 67.3663C80.9975 67.2816 80.6171 67.3006 80.2634 67.4211C79.9097 67.5415 79.5968 67.7587 79.3602 68.0479C79.1236 68.3371 78.9728 68.6868 78.9248 69.0574C78.8036 70.0155 78.4158 70.9203 77.8057 71.6689C77.1955 72.4174 76.3874 72.9796 75.4734 73.2915C74.5594 73.6033 73.5763 73.6523 72.6358 73.4329C71.6953 73.2134 70.8354 72.7343 70.1538 72.0502C69.184 71.078 68.6394 69.7608 68.6394 68.3877C68.6394 67.0145 69.184 65.6973 70.1538 64.7252C70.963 63.9236 72.0166 63.4151 73.1476 63.2802C73.5181 63.2321 73.8677 63.0812 74.1568 62.8446C74.446 62.608 74.663 62.2952 74.7835 61.9415C74.9039 61.5879 74.9229 61.2075 74.8382 60.8436C74.7536 60.4798 74.5687 60.1469 74.3046 59.8827L63.7718 49.3502L87.0271 26.0949L81.8456 42.5239C81.6994 42.9872 81.7269 43.4878 81.9228 43.9323C82.1188 44.3768 82.4698 44.7348 82.9103 44.9394C83.1553 45.0532 88.9533 47.6824 92.7563 43.8294C95.2853 41.2677 98.7041 34.2357 100.037 31.3774C102.801 31.1774 109.091 30.1589 112.464 25.1047C112.758 24.6634 112.865 24.1233 112.762 23.6032C112.658 23.083 112.352 22.6253 111.91 22.3309C111.469 22.0365 110.929 21.9294 110.409 22.0332C109.889 22.137 109.431 22.4432 109.137 22.8844C106.054 27.5032 98.8491 27.4259 98.7788 27.4242C98.3859 27.4166 97.9994 27.5243 97.667 27.7339C97.3346 27.9435 97.0709 28.2459 96.9083 28.6037C95.6853 31.3239 92.0443 38.8572 89.9098 41.0197C88.9098 42.0319 87.4156 42.0247 86.2651 41.8099L93.3003 19.5002C93.435 19.0731 93.4226 18.6132 93.2649 18.1941C93.1072 17.775 92.8134 17.4209 92.4306 17.1886C92.0477 16.9563 91.598 16.8592 91.1534 16.9128C90.7089 16.9664 90.2952 17.1677 89.9786 17.4844L81.3318 26.1312L82.6451 21.8502L90.2298 14.2644L105.55 10.6272C105.911 10.5415 106.241 10.3573 106.503 10.0952L113.183 3.41416C113.374 3.22967 113.526 3.00898 113.631 2.76497C113.736 2.52096 113.791 2.25852 113.793 1.99296C113.795 1.72741 113.745 1.46405 113.644 1.21825C113.544 0.972462 113.395 0.749158 113.207 0.561372C113.02 0.373587 112.796 0.225081 112.55 0.124519C112.305 0.0239572 112.041 -0.0266462 111.776 -0.0243385C111.51 -0.0220309 111.248 0.0331416 111.004 0.13796C110.76 0.242778 110.539 0.395142 110.355 0.586162L104.075 6.86616L88.7546 10.5042C88.3939 10.5897 88.0642 10.7738 87.8021 11.0359L79.4646 19.3752C79.2335 19.6063 79.0626 19.8905 78.9668 20.2029L75.2983 32.1664L59.5291 47.9352C59.154 48.3102 58.9434 48.8189 58.9434 49.3493C58.9434 49.8797 59.154 50.3883 59.5291 50.7634L69.2158 60.4502C68.5244 60.8462 67.8887 61.3324 67.3256 61.8962C66.4731 62.7486 65.7968 63.7606 65.3354 64.8744C64.8741 65.9882 64.6366 67.1819 64.6365 68.3875C64.6365 69.5931 64.8739 70.7869 65.3352 71.9007C65.7966 73.0145 66.4727 74.0265 67.3252 74.879C69.0468 76.6007 71.3818 77.568 73.8165 77.5681C75.0221 77.5681 76.2159 77.3307 77.3297 76.8694C78.4435 76.408 79.4556 75.7319 80.3081 74.8794C80.872 74.3164 81.3585 73.6807 81.7546 72.9892L90.3226 81.5572C90.5083 81.7429 90.7288 81.8903 90.9715 81.9908C91.2141 82.0914 91.4743 82.1431 91.7369 82.1431C91.9996 82.1431 92.2597 82.0914 92.5024 81.9908C92.7451 81.8903 92.9656 81.7429 93.1513 81.5572L102.709 71.9989C103.099 72.6745 103.576 73.2959 104.128 73.8472C105.837 75.543 108.148 76.4926 110.556 76.488C112.963 76.4834 115.271 75.525 116.973 73.8227C118.675 72.1204 119.634 69.8128 119.638 67.4054C119.643 64.9979 118.693 62.6867 116.998 60.9779C116.446 60.426 115.825 59.9489 115.149 59.5589L123.6 51.1069C123.975 50.7318 124.186 50.2232 124.186 49.6928C124.186 49.1624 123.975 48.6537 123.6 48.2787L113.769 38.4469L116.097 36.1184C119.983 32.2329 120.719 26.3972 120.858 24.2002Z" fill="#0D1789"/>
<path d="M69.9958 79.0335C69.7295 78.7673 69.3935 78.5816 69.0264 78.4978C68.6593 78.4141 68.276 78.4357 67.9206 78.5601C67.5652 78.6846 67.2521 78.9068 67.0175 79.2013C66.7828 79.4958 66.636 79.8506 66.594 80.2248C66.493 81.1826 66.1229 82.0922 65.5265 82.8483C64.93 83.6045 64.1316 84.1763 63.2237 84.4977C62.3158 84.819 61.3355 84.8767 60.3962 84.6641C59.4569 84.4514 58.5969 83.9772 57.9159 83.2961C57.2349 82.6151 56.7607 81.7552 56.548 80.8159C56.3354 79.8766 56.3931 78.8962 56.7144 77.9883C57.0357 77.0804 57.6076 76.2821 58.3637 75.6856C59.1199 75.0892 60.0295 74.719 60.9873 74.618C61.3615 74.5761 61.7163 74.4294 62.0108 74.1947C62.3053 73.96 62.5276 73.647 62.6521 73.2916C62.7766 72.9362 62.7982 72.5529 62.7145 72.1857C62.6307 71.8186 62.4451 71.4826 62.1788 71.2163L51.2688 60.3065C51.0831 60.1208 50.8626 59.9735 50.6199 59.873C50.3773 59.7724 50.1172 59.7207 49.8545 59.7207C49.5919 59.7207 49.3318 59.7724 49.0892 59.873C48.8465 59.9735 48.626 60.1208 48.4403 60.3065L39.9888 68.758C39.599 68.0823 39.1219 67.4609 38.5698 66.9098C37.019 65.3611 34.9614 64.4242 32.7752 64.2711C30.5889 64.118 28.4208 64.7591 26.6693 66.0765C24.9179 67.3939 23.7007 69.2992 23.2415 71.4422C22.7823 73.5851 23.1119 75.8219 24.1698 77.7413L20.1978 78.968C19.8864 79.0638 19.6032 79.2343 19.3728 79.4645L11.0343 87.802C10.772 88.0638 10.5878 88.3936 10.5025 88.7543L6.8658 104.075L0.585796 110.354C0.398204 110.54 0.249098 110.76 0.147058 111.003C0.0450173 111.246 -0.0079439 111.507 -0.00877903 111.771C-0.00961416 112.035 0.0416933 112.296 0.142192 112.54C0.24269 112.783 0.390395 113.005 0.57681 113.191C0.763225 113.378 0.984669 113.525 1.2284 113.626C1.47214 113.727 1.73335 113.778 1.99702 113.777C2.26068 113.776 2.52159 113.724 2.76474 113.622C3.00788 113.52 3.22847 113.371 3.4138 113.183L10.0948 106.503C10.3568 106.241 10.5409 105.911 10.6265 105.551L14.2645 90.2298L21.8518 82.6435L27.2113 80.9883C27.323 81.0595 27.434 81.1318 27.5488 81.198L17.9905 90.7563C17.669 91.0771 17.4663 91.4978 17.4157 91.9491C17.365 92.4005 17.4695 92.8556 17.712 93.2397C17.9544 93.6238 18.3204 93.9139 18.7497 94.0623C19.1789 94.2107 19.6459 94.2086 20.0738 94.0563L41.8215 86.3385C42.0233 87.4793 42.009 88.9323 41.018 89.9105C38.8558 92.045 31.3223 95.6855 28.602 96.909C28.2446 97.0708 27.9424 97.3337 27.7328 97.6654C27.5232 97.997 27.4153 98.3828 27.4225 98.775C27.4225 98.8473 27.5018 106.055 22.8828 109.137C22.4416 109.431 22.1354 109.889 22.0316 110.409C21.9278 110.929 22.0349 111.47 22.3293 111.911C22.6237 112.352 23.0814 112.658 23.6015 112.762C24.1217 112.866 24.6618 112.759 25.103 112.464C30.1578 109.092 31.1763 102.802 31.376 100.037C34.2343 98.705 41.2663 95.2858 43.828 92.757C47.6813 88.954 45.053 83.157 44.938 82.911C44.7282 82.4594 44.3574 82.1024 43.8983 81.9097C43.4391 81.7169 42.9246 81.7025 42.4553 81.869L27.0788 87.325L32.633 81.771C32.8972 81.5069 33.0821 81.174 33.1667 80.8101C33.2514 80.4462 33.2324 80.0659 33.112 79.7123C32.9916 79.3586 32.7746 79.0458 32.4855 78.8092C32.1964 78.5725 31.8468 78.4216 31.4763 78.3735C30.3629 78.2406 29.3257 77.7399 28.529 76.9508C28.0555 76.4772 27.6798 75.915 27.4235 75.2962C27.1672 74.6775 27.0353 74.0143 27.0353 73.3445C27.0353 72.6748 27.1672 72.0116 27.4235 71.3928C27.6798 70.7741 28.0555 70.2119 28.529 69.7383C29.0026 69.2647 29.5648 68.889 30.1836 68.6327C30.8024 68.3764 31.4656 68.2445 32.1353 68.2445C32.805 68.2445 33.4682 68.3764 34.087 68.6327C34.7057 68.889 35.268 69.2647 35.7415 69.7383C36.5306 70.5349 37.0311 71.5721 37.1638 72.6855C37.2118 73.0561 37.3627 73.4058 37.5993 73.6949C37.8359 73.9841 38.1488 74.2012 38.5025 74.3217C38.8562 74.4421 39.2366 74.4611 39.6005 74.3764C39.9644 74.2917 40.2974 74.1068 40.5615 73.8425L49.8545 64.55L57.0573 71.7528C56.3483 72.1512 55.6975 72.6451 55.123 73.2208C54.2727 74.0646 53.5974 75.068 53.1358 76.1735C52.6742 77.2789 52.4354 78.4646 52.4332 79.6626C52.4309 80.8605 52.6652 82.0471 53.1225 83.1543C53.5799 84.2615 54.2514 85.2675 55.0985 86.1146C55.9456 86.9617 56.9515 87.6332 58.0587 88.0905C59.1659 88.5479 60.3525 88.7822 61.5505 88.7799C62.7484 88.7776 63.9341 88.5388 65.0396 88.0772C66.145 87.6156 67.1485 86.9403 67.9923 86.09C68.5679 85.5155 69.0618 84.8647 69.4603 84.1558L77.8195 92.515L70.7823 99.5525C70.3924 98.8768 69.9153 98.2553 69.3633 97.704C68.5183 96.859 67.5151 96.1887 66.411 95.7314C65.3069 95.2741 64.1236 95.0387 62.9286 95.0388C61.7335 95.0388 60.5502 95.2742 59.4462 95.7315C58.3421 96.1888 57.3389 96.8591 56.4939 97.7042C55.6489 98.5492 54.9786 99.5524 54.5213 100.656C54.064 101.76 53.8286 102.944 53.8286 104.139C53.8287 105.334 54.064 106.517 54.5214 107.621C54.9787 108.725 55.649 109.729 56.494 110.574C57.0452 111.125 57.6667 111.602 58.3423 111.992L50.1983 120.136L35.2538 105.192C35.0692 105.002 34.8485 104.85 34.6048 104.746C34.361 104.642 34.099 104.587 33.8339 104.585C33.5688 104.583 33.3059 104.633 33.0606 104.734C32.8153 104.834 32.5924 104.983 32.4049 105.17C32.2173 105.357 32.069 105.58 31.9683 105.826C31.8677 106.071 31.8168 106.334 31.8187 106.599C31.8205 106.864 31.8751 107.126 31.9791 107.37C32.0832 107.614 32.2347 107.834 32.4248 108.019L35.482 111.076L33.2895 113.269C29.716 116.842 23.4053 116.89 23.3463 116.89H23.3398C22.8094 116.89 22.3008 117.101 21.9258 117.476L14.8148 124.586C14.6256 124.771 14.4751 124.991 14.3718 125.235C14.2685 125.478 14.2145 125.74 14.213 126.004C14.2115 126.269 14.2625 126.531 14.363 126.776C14.4635 127.021 14.6116 127.243 14.7986 127.43C14.9857 127.617 15.2079 127.765 15.4526 127.866C15.6973 127.966 15.9595 128.017 16.224 128.016C16.4885 128.014 16.7501 127.96 16.9937 127.857C17.2372 127.754 17.4578 127.603 17.6428 127.414L24.1998 120.858C26.3963 120.719 32.2318 119.983 36.1173 116.097L38.31 113.905L48.7833 124.378C48.969 124.564 49.1895 124.711 49.4322 124.812C49.6748 124.912 49.9349 124.964 50.1975 124.964C50.4602 124.964 50.7203 124.912 50.9629 124.812C51.2056 124.711 51.4261 124.564 51.6118 124.378L63.4258 112.564C63.69 112.3 63.8748 111.967 63.9595 111.603C64.0441 111.239 64.0251 110.858 63.9046 110.505C63.7842 110.151 63.5671 109.838 63.2779 109.602C62.9887 109.365 62.6391 109.214 62.2685 109.166C61.3205 109.049 60.4245 108.668 59.6826 108.066C58.9407 107.464 58.3827 106.666 58.0721 105.763C57.7616 104.859 57.711 103.887 57.9262 102.956C58.1413 102.026 58.6135 101.174 59.289 100.499C59.9645 99.8231 60.8162 99.3509 61.7469 99.1359C62.6776 98.9208 63.6501 98.9714 64.5534 99.282C65.4568 99.5927 66.2547 100.151 66.8564 100.893C67.4581 101.635 67.8393 102.531 67.9565 103.479C68.0046 103.849 68.1555 104.199 68.3921 104.488C68.6288 104.777 68.9417 104.994 69.2954 105.115C69.6491 105.235 70.0294 105.254 70.3933 105.169C70.7572 105.085 71.0901 104.9 71.3543 104.636L82.0615 93.9283C82.2473 93.7426 82.3946 93.5221 82.4951 93.2794C82.5956 93.0368 82.6474 92.7767 82.6474 92.514C82.6474 92.2514 82.5956 91.9913 82.4951 91.7486C82.3946 91.506 82.2473 91.2855 82.0615 91.0998L69.9958 79.0335Z" fill="#0D1789"/>
</g>
<defs>
<clipPath id="clip0_1246_7">
<rect width="128" height="128" fill="white"/>
</clipPath>
</defs>
</svg>
