<svg width="128" height="128" viewBox="0 0 128 128" fill="none" xmlns="http://www.w3.org/2000/svg">
<g clip-path="url(#clip0_1254_1458)">
<path d="M93.0546 94.3607C94.6346 95.0552 96.4786 94.3375 97.1731 92.7575L110.361 62.7575C111.269 60.6922 109.756 58.375 107.5 58.375H90.9961C89.2701 58.375 87.8711 59.774 87.8711 61.5C87.8711 63.226 89.2701 64.625 90.9961 64.625H102.713L91.4513 90.2425C90.7568 91.8225 91.4746 93.6662 93.0546 94.3607Z" fill="#0D1789"/>
<path d="M62.3336 69.5948C62.4936 69.625 62.5424 69.625 62.6006 69.625C64.3136 69.625 65.7101 68.2435 65.7251 66.527C65.7341 65.4633 65.7516 63.3658 65.7711 60.7708H66.5031C68.2486 60.7708 69.6599 59.3398 69.6276 57.587C69.5961 55.8668 68.1201 54.5208 66.3994 54.5208H65.8129C65.8556 47.2583 65.8791 39.3948 65.7894 38.3198C65.5986 36.032 64.2314 34.1688 62.3059 33.5723C60.3994 32.9815 58.3641 33.7293 56.8624 35.572C55.6236 37.0918 48.7751 49.2713 44.9529 56.1253C43.7911 58.2083 45.2981 60.7708 47.6829 60.7708H59.5204C59.5066 62.653 59.4924 64.465 59.4784 66.114C59.4636 67.8115 60.6654 69.2793 62.3336 69.5948ZM52.9731 54.5208C55.4686 50.0533 57.9124 45.7583 59.6016 42.8953C59.6041 45.8723 59.5871 50.1173 59.5614 54.5208H52.9731Z" fill="#0D1789"/>
<path d="M34.084 49.7635C29.42 56.4272 26.637 60.071 25.142 62.0287C23.2902 64.4535 22.5237 65.457 23.0605 67.2025C23.3742 68.2227 24.1475 69.0057 25.1825 69.351C25.5987 69.4897 26.0235 69.632 31.731 69.632C33.9697 69.632 37.0222 69.61 41.2042 69.5575C42.93 69.5357 44.3115 68.1192 44.2897 66.3935C44.2682 64.6677 42.8477 63.2927 41.1257 63.308C37.9882 63.3475 34.6527 63.3725 31.9645 63.3752C33.6135 61.1775 35.9635 57.9782 39.2045 53.3475C41.0695 50.6827 42.2847 48.1682 42.8167 45.8735C42.8997 45.416 43.0277 44.4932 43.0427 44.0297C43.0427 38.155 38.2632 33.3755 32.3885 33.3755C27.309 33.3755 22.9122 36.9892 21.9342 41.9677C21.6015 43.6612 22.7047 45.3037 24.3982 45.6365C26.0917 45.9687 27.7342 44.866 28.067 43.1725C28.4707 41.1172 30.2882 39.6255 32.3885 39.6255C34.7592 39.6255 36.6982 41.5082 36.7895 43.857L36.6942 44.6025C36.3222 46.0837 35.4447 47.819 34.084 49.7635Z" fill="#0D1789"/>
<path d="M123.146 39.502C122.355 37.588 120.162 36.6775 118.248 37.4682C116.334 38.2592 115.423 40.452 116.214 42.366C124.968 63.5525 120.152 87.714 103.945 103.92C93.274 114.592 79.0855 120.469 63.994 120.469C52.2652 120.469 41.0857 116.914 31.6757 110.322H39.074C41.145 110.322 42.824 108.643 42.824 106.572C42.824 104.501 41.145 102.822 39.074 102.822H21.3965C19.3255 102.822 17.6465 104.501 17.6465 106.572V124.25C17.6465 126.321 19.3255 128 21.3965 128C23.4675 128 25.1465 126.321 25.1465 124.25V114.836C36.2497 123.352 49.766 127.969 63.9942 127.969C81.0892 127.969 97.1612 121.312 109.249 109.224C118.369 100.104 124.459 88.6105 126.86 75.9867C129.202 63.6695 127.918 51.0532 123.146 39.502Z" fill="#0D1789"/>
<path d="M11.7957 85.6275C3.02716 64.4348 7.83891 40.2635 24.0539 24.0485C34.7254 13.377 48.9139 7.5 64.0057 7.5C75.7542 7.5 86.9534 11.0647 96.3737 17.6777H88.9254C86.8544 17.6777 85.1754 19.3567 85.1754 21.4277C85.1754 23.4987 86.8544 25.1777 88.9254 25.1777H106.603C108.674 25.1777 110.353 23.4987 110.353 21.4277V3.75C110.353 1.679 108.674 0 106.603 0C104.532 0 102.853 1.679 102.853 3.75V13.132C91.7499 4.61575 78.2337 0 64.0057 0C46.9107 0 30.8387 6.657 18.7507 18.7453C9.62666 27.8693 3.53591 39.3675 1.13691 51.9967C-1.20409 64.3202 0.0851645 76.941 4.86566 88.495C5.65741 90.4088 7.85066 91.3182 9.76441 90.5265C11.6777 89.7347 12.5874 87.5415 11.7957 85.6275Z" fill="#0D1789"/>
<path d="M66.5958 89.4035C68.1996 90.0413 70.0166 89.2583 70.6546 87.6548L86.5638 47.6546C87.2016 46.0508 86.4188 44.2338 84.8151 43.596C83.2113 42.9583 81.3943 43.7413 80.7566 45.3448L64.8473 85.3451C64.2091 86.9486 64.9921 88.7658 66.5958 89.4035Z" fill="#0D1789"/>
</g>
<defs>
<clipPath id="clip0_1254_1458">
<rect width="128" height="128" fill="white"/>
</clipPath>
</defs>
</svg>
